<?xml version="1.0" encoding="utf-8"?>
<!-- Generator: Adobe Illustrator 15.0.0, SVG Export Plug-In . SVG Version: 6.00 Build 0)  -->
<!DOCTYPE svg PUBLIC "-//W3C//DTD SVG 1.1//EN" "http://www.w3.org/Graphics/SVG/1.1/DTD/svg11.dtd">
<svg version="1.1" id="Layer_1" xmlns="http://www.w3.org/2000/svg" xmlns:xlink="http://www.w3.org/1999/xlink" x="0px" y="0px"
	 width="26px" height="26px" viewBox="0 0 26 26" enable-background="new 0 0 26 26" xml:space="preserve">
<g>
	<linearGradient id="SVGID_1_" gradientUnits="userSpaceOnUse" x1="5.5171" y1="0.4365" x2="19.8157" y2="27.5017">
		<stop  offset="0" style="stop-color:#C1282D"/>
		<stop  offset="1" style="stop-color:#754D25"/>
	</linearGradient>
	<path fill="url(#SVGID_1_)" d="M22.161,14.925c-0.719,0.035-1.696,0.408-2.93,1.12c-1.282,0.741-2.209,1.201-2.779,1.382
		c-0.853,0.28-1.41,0.19-1.676-0.27c-0.266-0.461-0.177-0.926,0.271-1.396c0.3-0.321,0.901-0.743,1.803-1.263
		c0.743-0.43,1.243-1.035,1.5-1.816s0.192-1.503-0.191-2.168c-0.394-0.681-0.992-1.105-1.796-1.274
		c-0.805-0.169-1.578-0.038-2.322,0.391c-1.06,0.613-1.708,0.954-1.94,1.025c-0.611,0.184-1.073,0.005-1.385-0.535
		c-0.293-0.508-0.102-1.053,0.576-1.635c0.35-0.307,1.221-0.864,2.613-1.668c1.266-0.731,2.087-1.374,2.462-1.93
		c0.543-0.779,0.517-1.684-0.08-2.716c-0.568-0.985-1.429-1.398-2.583-1.24c-0.877,0.126-2.083,0.631-3.619,1.518L3.935,6
		c-1.329,0.768-2.19,1.89-2.583,3.364c-0.394,1.476-0.205,2.88,0.564,4.213l5.442,9.425c0.769,1.332,1.891,2.198,3.366,2.595
		c1.474,0.397,2.876,0.212,4.205-0.557l6.149-3.55c1.599-0.923,2.654-1.69,3.165-2.304c0.732-0.888,0.8-1.849,0.204-2.881
		C23.878,15.321,23.116,14.862,22.161,14.925z"/>
	<linearGradient id="SVGID_2_" gradientUnits="userSpaceOnUse" x1="5.5171" y1="0.4365" x2="19.8157" y2="27.5017">
		<stop  offset="0" style="stop-color:#C1282D"/>
		<stop  offset="1" style="stop-color:#754D25"/>
	</linearGradient>
	<path fill="url(#SVGID_2_)" d="M22.161,14.925c-0.719,0.035-1.696,0.408-2.93,1.12c-1.282,0.741-2.209,1.201-2.779,1.382
		c-0.853,0.28-1.41,0.19-1.676-0.27c-0.266-0.461-0.177-0.926,0.271-1.396c0.3-0.321,0.901-0.743,1.803-1.263
		c0.743-0.43,1.243-1.035,1.5-1.816s0.192-1.503-0.191-2.168c-0.394-0.681-0.992-1.105-1.796-1.274
		c-0.805-0.169-1.578-0.038-2.322,0.391c-1.06,0.613-1.708,0.954-1.94,1.025c-0.611,0.184-1.073,0.005-1.385-0.535
		c-0.293-0.508-0.102-1.053,0.576-1.635c0.35-0.307,1.221-0.864,2.613-1.668c1.266-0.731,2.087-1.374,2.462-1.93
		c0.543-0.779,0.517-1.684-0.08-2.716c-0.568-0.985-1.429-1.398-2.583-1.24c-0.877,0.126-2.083,0.631-3.619,1.518L3.935,6
		c-1.329,0.768-2.19,1.89-2.583,3.364c-0.394,1.476-0.205,2.88,0.564,4.213l5.442,9.425c0.769,1.332,1.891,2.198,3.366,2.595
		c1.474,0.397,2.876,0.212,4.205-0.557l6.149-3.55c1.599-0.923,2.654-1.69,3.165-2.304c0.732-0.888,0.8-1.849,0.204-2.881
		C23.878,15.321,23.116,14.862,22.161,14.925z"/>
	<g>
		<g>
			<defs>
				<path id="SVGID_3_" d="M22.161,14.414c-0.719,0.035-1.696,0.408-2.93,1.121c-1.282,0.74-2.209,1.201-2.779,1.381
					c-0.853,0.28-1.41,0.191-1.676-0.27s-0.177-0.927,0.271-1.396c0.3-0.322,0.901-0.743,1.803-1.264
					c0.743-0.43,1.243-1.035,1.5-1.816c0.257-0.78,0.192-1.504-0.191-2.168c-0.394-0.681-0.992-1.105-1.796-1.274
					c-0.805-0.168-1.578-0.038-2.322,0.391c-1.06,0.612-1.708,0.955-1.94,1.025c-0.611,0.185-1.073,0.006-1.385-0.535
					c-0.293-0.508-0.102-1.052,0.576-1.634c0.35-0.308,1.221-0.864,2.613-1.668c1.266-0.731,2.087-1.375,2.462-1.931
					c0.543-0.778,0.517-1.684-0.08-2.716c-0.568-0.985-1.429-1.398-2.583-1.24c-0.877,0.125-2.083,0.631-3.619,1.518l-6.149,3.55
					c-1.329,0.768-2.19,1.889-2.583,3.365c-0.394,1.476-0.205,2.879,0.564,4.212l5.442,9.425c0.769,1.333,1.891,2.198,3.366,2.595
					c1.474,0.397,2.876,0.211,4.205-0.556l6.149-3.55c1.599-0.924,2.654-1.691,3.165-2.305c0.732-0.888,0.8-1.848,0.204-2.881
					C23.878,14.811,23.116,14.35,22.161,14.414z"/>
			</defs>
			<clipPath id="SVGID_4_">
				<use xlink:href="#SVGID_3_"  overflow="visible"/>
			</clipPath>
			<rect x="0.958" y="0.264" clip-path="url(#SVGID_4_)" fill="#F15C27" width="24.084" height="25.22"/>
			<path clip-path="url(#SVGID_4_)" fill="#F15C27" d="M22.715,25.738H0.702V0.009h24.595V23.11h0.796
				c-0.965,1.462-2.091,2.848-3.378,4.135V25.738z"/>
			<path clip-path="url(#SVGID_4_)" fill="#F15D27" d="M22.568,25.738H0.702V0.009h24.595v22.986h0.621
				c-0.957,1.45-2.074,2.826-3.35,4.104V25.738z"/>
			<path clip-path="url(#SVGID_4_)" fill="#F15E27" d="M22.42,25.738H0.702V0.009h24.595v22.872h0.447
				c-0.95,1.438-2.058,2.803-3.324,4.069V25.738z"/>
			<path clip-path="url(#SVGID_4_)" fill="#F15F27" d="M22.272,25.738H0.702V0.009h24.595v22.756h0.272
				c-0.941,1.428-2.041,2.781-3.297,4.037V25.738z"/>
			<path clip-path="url(#SVGID_4_)" fill="#F15F27" d="M22.125,25.738H0.702V0.009h24.595v22.643h0.099
				c-0.936,1.415-2.024,2.757-3.271,4.004V25.738z"/>
			<path clip-path="url(#SVGID_4_)" fill="#F16027" d="M21.978,25.738H0.702V0.009h24.595v20.37h1.198
				c-0.386,0.735-0.811,1.455-1.274,2.156c-0.927,1.404-2.008,2.736-3.243,3.972V25.738z"/>
			<path clip-path="url(#SVGID_4_)" fill="#F26127" d="M21.83,25.738H0.702V0.009h24.595v20.273h1.014
				c-0.383,0.728-0.804,1.442-1.264,2.139c-0.919,1.393-1.992,2.712-3.217,3.938V25.738z"/>
			<path clip-path="url(#SVGID_4_)" fill="#F26227" d="M21.682,25.738H0.702V0.009h24.595v20.177h0.829
				c-0.38,0.723-0.798,1.43-1.254,2.12c-0.912,1.381-1.975,2.69-3.19,3.905V25.738z"/>
			<path clip-path="url(#SVGID_4_)" fill="#F26328" d="M21.535,25.738H0.702V0.009h24.595v17.889h1.661
				c-1.205,2.972-3.013,5.757-5.423,8.167V25.738z"/>
			<path clip-path="url(#SVGID_4_)" fill="#F26428" d="M21.386,25.738H0.702V0.009h24.595v17.81h1.467
				c-1.194,2.946-2.986,5.709-5.378,8.098V25.738z"/>
			<path clip-path="url(#SVGID_4_)" fill="#F26428" d="M21.238,25.738H0.702V0.009h24.595v17.73h1.273
				c-1.186,2.922-2.961,5.66-5.332,8.03V25.738z"/>
			<path clip-path="url(#SVGID_4_)" fill="#F26528" d="M21.091,25.621c-0.587,0.587-1.197,1.137-1.828,1.652v-1.535H0.702V0.009
				h24.595v17.652h1.08C25.203,20.558,23.44,23.272,21.091,25.621z"/>
			<path clip-path="url(#SVGID_4_)" fill="#F26628" d="M20.943,25.475c-0.582,0.581-1.187,1.128-1.812,1.636v-1.372H0.702V0.009
				h24.595v17.574h0.887C25.02,20.454,23.272,23.145,20.943,25.475z"/>
			<path clip-path="url(#SVGID_4_)" fill="#F26728" d="M20.796,25.326c-0.577,0.577-1.177,1.118-1.796,1.623v-1.211H0.702V0.009
				h24.595v17.495h0.693C24.835,20.35,23.105,23.018,20.796,25.326z"/>
			<path clip-path="url(#SVGID_4_)" fill="#F26828" d="M20.648,25.178c-0.572,0.573-1.166,1.108-1.78,1.609v-1.049H0.702V0.009
				h24.595v17.416h0.5C24.653,20.246,22.937,22.89,20.648,25.178z"/>
			<path clip-path="url(#SVGID_4_)" fill="#F26929" d="M20.501,25.031c-0.567,0.565-1.157,1.098-1.765,1.594v-0.887H0.702V0.009
				h24.595v17.338h0.307C24.469,20.144,22.769,22.762,20.501,25.031z"/>
			<path clip-path="url(#SVGID_4_)" fill="#F26A29" d="M20.354,24.883c-0.563,0.563-1.146,1.089-1.748,1.58v-0.725H0.702V0.009
				h24.595v17.259h0.112C24.285,20.039,22.601,22.635,20.354,24.883z"/>
			<path clip-path="url(#SVGID_4_)" fill="#F26A29" d="M20.205,24.735c-0.557,0.557-1.135,1.078-1.732,1.565v-0.563H0.702V0.009
				h24.07v-1.008c0.156,0.338,0.305,0.678,0.443,1.022c1.114,2.746,1.67,5.664,1.67,8.583
				C26.886,14.443,24.659,20.282,20.205,24.735z"/>
			<path clip-path="url(#SVGID_4_)" fill="#F36B29" d="M20.058,24.587c-1.104,1.104-2.293,2.069-3.546,2.896v-1.745H0.702V0.009
				h23.881v-0.92c0.155,0.334,0.301,0.671,0.44,1.012c1.103,2.721,1.654,5.612,1.654,8.505
				C26.678,14.39,24.471,20.175,20.058,24.587z"/>
			<path clip-path="url(#SVGID_4_)" fill="#F36C29" d="M19.91,24.44c-1.093,1.093-2.271,2.049-3.513,2.869v-1.571H0.702V0.009
				h23.691v-0.832c0.153,0.332,0.299,0.666,0.436,1.002c1.093,2.696,1.639,5.561,1.639,8.427
				C26.468,14.337,24.283,20.067,19.91,24.44z"/>
			<path clip-path="url(#SVGID_4_)" fill="#F36D29" d="M19.762,24.292c-1.082,1.083-2.25,2.031-3.479,2.842v-1.396H0.702V0.009
				h23.02V-1.71c0.339,0.644,0.644,1.301,0.913,1.968c1.083,2.67,1.624,5.509,1.624,8.348C26.259,14.284,24.094,19.96,19.762,24.292
				z"/>
			<path clip-path="url(#SVGID_4_)" fill="#F36E29" d="M19.614,24.146c-1.073,1.071-2.229,2.011-3.447,2.814v-1.222H0.702V0.009
				h22.835v-1.623c0.335,0.638,0.637,1.289,0.905,1.951c1.071,2.646,1.608,5.458,1.608,8.27
				C26.051,14.23,23.906,19.854,19.614,24.146z"/>
			<path clip-path="url(#SVGID_4_)" fill="#F36E2A" d="M19.467,23.997c-1.062,1.063-2.207,1.992-3.414,2.789v-1.048H0.702V0.009
				h22.65v-1.525c0.332,0.631,0.631,1.276,0.896,1.931c1.063,2.62,1.593,5.406,1.593,8.191
				C25.842,14.177,23.717,19.747,19.467,23.997z"/>
			<path clip-path="url(#SVGID_4_)" fill="#F36F2A" d="M19.319,23.851c-1.053,1.052-2.187,1.973-3.382,2.761v-0.873H0.702V0.009
				h22.465v-1.428c0.329,0.625,0.625,1.264,0.888,1.913c1.053,2.595,1.578,5.353,1.578,8.112
				C25.633,14.123,23.529,19.64,19.319,23.851z"/>
			<path clip-path="url(#SVGID_4_)" fill="#F3702A" d="M19.172,23.702c-1.042,1.042-2.165,1.954-3.349,2.735v-0.699H0.702V0.009
				h22.281v-1.331c0.325,0.62,0.618,1.252,0.878,1.895c1.043,2.57,1.563,5.302,1.563,8.034
				C25.425,14.069,23.34,19.534,19.172,23.702z"/>
			<path clip-path="url(#SVGID_4_)" fill="#F3712A" d="M19.024,23.554c-1.032,1.032-2.145,1.936-3.316,2.709v-0.524H0.702V0.009
				h22.095v-1.234c0.322,0.613,0.612,1.24,0.871,1.876c1.032,2.545,1.548,5.25,1.548,7.955
				C25.216,14.017,23.152,19.426,19.024,23.554z"/>
			<path clip-path="url(#SVGID_4_)" fill="#F3722A" d="M18.876,23.407c-1.021,1.021-2.122,1.915-3.283,2.681v-0.35H0.702V0.009
				h21.91v-1.136c0.319,0.607,0.606,1.226,0.861,1.857c1.022,2.52,1.533,5.198,1.533,7.876
				C25.007,13.962,22.963,19.319,18.876,23.407z"/>
			<path clip-path="url(#SVGID_4_)" fill="#F3722A" d="M18.729,23.259c-1.013,1.012-2.103,1.897-3.252,2.655v-0.176H0.702V0.009
				h21.726v-1.04c0.315,0.602,0.601,1.215,0.854,1.839c1.012,2.494,1.517,5.146,1.517,7.798
				C24.798,13.909,22.775,19.212,18.729,23.259z"/>
			<path clip-path="url(#SVGID_4_)" fill="#F3732A" d="M18.581,23.111c-1.001,1.001-2.08,1.877-3.218,2.628v-0.001H0.702V0.009
				h21.54v-0.943c0.313,0.595,0.595,1.204,0.845,1.82c1.001,2.47,1.502,5.095,1.502,7.72C24.589,13.856,22.586,19.106,18.581,23.111
				z"/>
			<path clip-path="url(#SVGID_4_)" fill="#F3742B" d="M18.434,22.963c-1.982,1.983-4.272,3.471-6.716,4.461v-1.686H0.702V0.009
				h21.355v-0.846c0.31,0.589,0.589,1.191,0.836,1.802c0.99,2.444,1.487,5.042,1.487,7.641
				C24.381,13.802,22.398,18.999,18.434,22.963z"/>
			<path clip-path="url(#SVGID_4_)" fill="#F4752B" d="M18.286,22.816c-1.962,1.962-4.229,3.434-6.647,4.415v-1.493H0.702V0.009
				h21.171v-0.748c0.306,0.583,0.582,1.178,0.827,1.783c0.98,2.419,1.472,4.99,1.472,7.562
				C24.172,13.749,22.209,18.892,18.286,22.816z"/>
			<path clip-path="url(#SVGID_4_)" fill="#F4752B" d="M18.138,22.668c-1.941,1.941-4.184,3.398-6.578,4.368v-1.298H0.702V0.009
				h20.985v-0.651c0.304,0.578,0.576,1.166,0.819,1.765c0.972,2.394,1.456,4.938,1.456,7.483
				C23.963,13.695,22.021,18.785,18.138,22.668z"/>
			<path clip-path="url(#SVGID_4_)" fill="#F4762B" d="M17.99,22.521c-1.921,1.921-4.14,3.362-6.509,4.322v-1.104H0.702V0.009
				h20.801v-0.554c0.3,0.571,0.57,1.154,0.811,1.746c0.961,2.369,1.44,4.887,1.44,7.405C23.754,13.642,21.833,18.678,17.99,22.521z"
				/>
			<path clip-path="url(#SVGID_4_)" fill="#F4772B" d="M17.843,22.373c-1.9,1.901-4.096,3.326-6.44,4.277v-0.912H0.702V0.009h20.616
				v-0.458c0.297,0.565,0.564,1.143,0.802,1.728c0.95,2.344,1.425,4.835,1.425,7.327C23.545,13.588,21.645,18.571,17.843,22.373z"/>
			<path clip-path="url(#SVGID_4_)" fill="#F4782B" d="M17.695,22.226c-1.881,1.881-4.052,3.291-6.371,4.231v-0.719H0.702V0.009
				h20.431v-0.36c0.294,0.56,0.559,1.129,0.793,1.709c0.94,2.318,1.41,4.783,1.41,7.248C23.336,13.535,21.456,18.464,17.695,22.226z
				"/>
			<path clip-path="url(#SVGID_4_)" fill="#F4782C" d="M17.547,22.078c-1.859,1.859-4.007,3.255-6.301,4.184v-0.523H0.702V0.009
				h20.246v-0.263c0.29,0.553,0.552,1.117,0.785,1.69c0.929,2.293,1.395,4.731,1.395,7.169
				C23.128,13.481,21.267,18.358,17.547,22.078z"/>
			<path clip-path="url(#SVGID_4_)" fill="#F4792C" d="M17.4,21.93c-3.679,3.68-8.502,5.52-13.324,5.52v-1.711H0.702V0.009h19.112
				v-1.771c0.689,1.045,1.265,2.144,1.725,3.278c0.92,2.269,1.38,4.68,1.38,7.091C22.919,13.428,21.079,18.251,17.4,21.93z"/>
			<path clip-path="url(#SVGID_4_)" fill="#F47A2C" d="M17.252,21.783c-3.637,3.638-8.407,5.457-13.176,5.457v-1.502H0.702V0.009
				H19.64v-1.656c0.683,1.033,1.251,2.119,1.706,3.241c0.91,2.243,1.364,4.627,1.364,7.012
				C22.71,13.375,20.891,18.145,17.252,21.783z"/>
			<path clip-path="url(#SVGID_4_)" fill="#F47A2C" d="M17.105,21.634c-3.599,3.6-8.313,5.398-13.029,5.398v-1.294H0.702V0.009
				h18.763v-1.542c0.675,1.021,1.238,2.096,1.688,3.205c0.899,2.218,1.35,4.576,1.35,6.934
				C22.502,13.321,20.703,18.036,17.105,21.634z"/>
			<path clip-path="url(#SVGID_4_)" fill="#F47B2C" d="M16.957,21.487c-3.557,3.557-8.219,5.336-12.881,5.336v-1.085H0.702V0.009
				h18.589v-1.426c0.668,1.01,1.223,2.072,1.668,3.168c0.889,2.193,1.333,4.523,1.333,6.855
				C22.292,13.268,20.514,17.93,16.957,21.487z"/>
			<path clip-path="url(#SVGID_4_)" fill="#F47C2C" d="M16.81,21.339c-3.516,3.518-8.125,5.274-12.733,5.274v-0.875H0.702V0.009
				h18.415v-1.311c0.659,0.998,1.209,2.048,1.647,3.132c0.88,2.167,1.319,4.472,1.319,6.776
				C22.084,13.214,20.326,17.823,16.81,21.339z"/>
			<path clip-path="url(#SVGID_4_)" fill="#F47D2D" d="M16.661,21.191c-3.475,3.476-8.03,5.214-12.585,5.214v-0.667H0.702V0.009
				h18.24v-1.196c0.651,0.986,1.194,2.024,1.629,3.096c0.869,2.142,1.304,4.42,1.304,6.698
				C21.875,13.161,20.137,17.716,16.661,21.191z"/>
			<path clip-path="url(#SVGID_4_)" fill="#F47D2D" d="M16.514,21.044c-3.434,3.436-7.935,5.152-12.438,5.152v-0.458H0.717v0.136
				c-0.555-0.106-1.105-0.241-1.648-0.402h1.634V0.009h18.065v-1.082c0.644,0.976,1.182,2,1.61,3.06
				c0.858,2.118,1.288,4.368,1.288,6.619C21.666,13.107,19.949,17.61,16.514,21.044z"/>
			<path clip-path="url(#SVGID_4_)" fill="#F57E2D" d="M16.366,20.896c-3.393,3.394-7.842,5.091-12.29,5.091
				c-1.112,0-2.224-0.105-3.32-0.318c-0.547-0.105-1.091-0.238-1.629-0.397h1.575V0.009h17.891v-0.967
				c0.638,0.964,1.167,1.977,1.593,3.023c0.848,2.093,1.271,4.317,1.271,6.541C21.457,13.054,19.76,17.503,16.366,20.896z"/>
			<path clip-path="url(#SVGID_4_)" fill="#F57F2D" d="M16.219,20.749c-3.352,3.354-7.748,5.03-12.143,5.03
				c-1.098,0-2.197-0.105-3.279-0.315c-0.542-0.104-1.079-0.234-1.61-0.393h1.515V0.009h17.717v-0.852
				c0.629,0.953,1.153,1.953,1.572,2.987c0.839,2.067,1.258,4.264,1.258,6.462C21.249,13,19.572,17.396,16.219,20.749z"/>
			<path clip-path="url(#SVGID_4_)" fill="#F57F2D" d="M16.071,20.602c-3.313,3.312-7.653,4.969-11.995,4.969
				c-1.085,0-2.17-0.104-3.24-0.312c-0.535-0.103-1.064-0.232-1.589-0.388h1.456V0.009h17.543v-0.736
				c0.621,0.94,1.139,1.928,1.553,2.95c0.828,2.042,1.241,4.213,1.241,6.384C21.039,12.947,19.384,17.288,16.071,20.602z"/>
			<path clip-path="url(#SVGID_4_)" fill="#F5802E" d="M15.924,20.454c-3.271,3.271-7.56,4.907-11.848,4.907
				c-1.072,0-2.144-0.104-3.2-0.307c-0.529-0.103-1.053-0.23-1.571-0.384h1.396V0.009H18.07v-0.622
				c0.613,0.929,1.125,1.906,1.534,2.914c0.817,2.017,1.227,4.161,1.227,6.305C20.831,12.894,19.195,17.182,15.924,20.454z"/>
			<path clip-path="url(#SVGID_4_)" fill="#F5812E" d="M15.776,20.306c-3.231,3.23-7.465,4.847-11.7,4.847
				c-1.058,0-2.117-0.102-3.16-0.303c-0.521-0.102-1.04-0.228-1.551-0.38h1.337V0.009h17.194v-0.507
				c0.605,0.917,1.11,1.882,1.514,2.878c0.808,1.992,1.212,4.109,1.212,6.227C20.622,12.84,19.007,17.075,15.776,20.306z"/>
			<path clip-path="url(#SVGID_4_)" fill="#F5822E" d="M15.628,20.158c-3.189,3.189-7.37,4.785-11.552,4.785
				c-1.045,0-2.091-0.101-3.12-0.299c-0.515-0.101-1.026-0.225-1.531-0.374h1.277V0.009h17.019v-0.393
				c0.599,0.907,1.098,1.859,1.496,2.842c0.797,1.966,1.196,4.057,1.196,6.147C20.413,12.787,18.818,16.968,15.628,20.158z"/>
			<path clip-path="url(#SVGID_4_)" fill="#F5822E" d="M15.481,20.01c-3.15,3.149-7.277,4.725-11.405,4.725
				c-1.032,0-2.064-0.1-3.08-0.295c-0.509-0.1-1.013-0.222-1.512-0.369h1.218V0.009h16.845v-0.277
				c0.59,0.895,1.083,1.834,1.477,2.806c0.787,1.941,1.182,4.005,1.182,6.069C20.205,12.733,18.63,16.861,15.481,20.01z"/>
			<path clip-path="url(#SVGID_4_)" fill="#F5832E" d="M15.333,19.862c-3.108,3.108-7.183,4.664-11.257,4.664
				c-1.018,0-2.037-0.098-3.041-0.292c-0.501-0.098-1-0.22-1.491-0.364h1.158V0.009h16.671v-0.163
				c0.583,0.883,1.068,1.811,1.457,2.769c0.777,1.917,1.166,3.954,1.166,5.991C19.996,12.68,18.441,16.755,15.333,19.862z"/>
			<path clip-path="url(#SVGID_4_)" fill="#F5842F" d="M15.186,19.715c-3.067,3.068-7.088,4.602-11.109,4.602
				c-1.005,0-2.01-0.096-3.001-0.287c-0.495-0.095-0.986-0.216-1.472-0.359h1.099V0.009h16.496v-0.047
				c0.576,0.872,1.055,1.787,1.438,2.733c0.769,1.891,1.151,3.901,1.151,5.912C19.787,12.627,18.253,16.647,15.186,19.715z"/>
			<path clip-path="url(#SVGID_4_)" fill="#F5842F" d="M15.037,19.567c-3.026,3.027-6.993,4.542-10.961,4.542
				c-0.992,0-1.983-0.097-2.961-0.285c-0.488-0.094-0.973-0.213-1.453-0.354h1.04V0.009h15.399v-1.187
				c0.331,0.406,0.639,0.825,0.923,1.254c0.566,0.86,1.04,1.764,1.418,2.696c0.758,1.866,1.136,3.85,1.136,5.834
				C19.578,12.574,18.064,16.54,15.037,19.567z"/>
			<path clip-path="url(#SVGID_4_)" fill="#F6852F" d="M14.89,19.42c-2.985,2.987-6.899,4.479-10.813,4.479
				c-0.979,0-1.957-0.094-2.921-0.28c-0.482-0.093-0.96-0.21-1.433-0.35h0.98V0.009h15.237v-1.056
				c0.326,0.401,0.63,0.814,0.91,1.238c0.561,0.848,1.026,1.739,1.399,2.66c0.747,1.841,1.12,3.797,1.12,5.755
				C19.369,12.52,17.876,16.434,14.89,19.42z"/>
			<path clip-path="url(#SVGID_4_)" fill="#F6862F" d="M14.742,19.272c-2.945,2.944-6.805,4.418-10.666,4.418
				c-0.965,0-1.93-0.093-2.881-0.276c-0.476-0.092-0.947-0.206-1.414-0.345h0.92V0.009h15.076v-0.923
				c0.321,0.395,0.621,0.802,0.896,1.22c0.554,0.836,1.013,1.716,1.381,2.624c0.736,1.816,1.104,3.746,1.104,5.677
				C19.16,12.467,17.688,16.327,14.742,19.272z"/>
			<path clip-path="url(#SVGID_4_)" fill="#F6872F" d="M14.594,19.125c-2.903,2.904-6.711,4.357-10.518,4.357
				c-0.952,0-1.904-0.093-2.841-0.273c-0.468-0.091-0.934-0.204-1.394-0.34h0.861V0.009h14.913v-0.792
				c0.318,0.39,0.613,0.792,0.886,1.204c0.544,0.825,0.998,1.692,1.361,2.587c0.726,1.791,1.09,3.694,1.09,5.598
				C18.952,12.413,17.499,16.22,14.594,19.125z"/>
			<path clip-path="url(#SVGID_4_)" fill="#F68730" d="M14.447,18.978c-2.864,2.862-6.617,4.296-10.371,4.296
				c-0.938,0-1.877-0.089-2.801-0.27c-0.462-0.089-0.921-0.201-1.375-0.336h0.802V0.009h13.745v-1.774
				C20.175,3.962,20.175,13.25,14.447,18.978z"/>
			<path clip-path="url(#SVGID_4_)" fill="#F68830" d="M14.299,18.83c-2.822,2.823-6.522,4.234-10.223,4.234
				c-0.925,0-1.85-0.088-2.761-0.266c-0.456-0.089-0.908-0.197-1.354-0.331h0.742V0.009h13.597v-1.626
				C19.945,4.029,19.945,13.183,14.299,18.83z"/>
			<path clip-path="url(#SVGID_4_)" fill="#F68930" d="M14.152,18.682c-2.783,2.782-6.429,4.175-10.076,4.175
				c-0.911,0-1.823-0.088-2.721-0.263c-0.449-0.086-0.895-0.194-1.335-0.325h0.683V0.009h13.45V-1.47
				C19.716,4.095,19.716,13.117,14.152,18.682z"/>
			<path clip-path="url(#SVGID_4_)" fill="#F68930" d="M14.004,18.534c-2.741,2.742-6.334,4.113-9.928,4.113
				c-0.898,0-1.796-0.087-2.681-0.259c-0.443-0.085-0.882-0.191-1.316-0.32h0.624V0.009h13.302v-1.331
				C19.487,4.161,19.487,13.051,14.004,18.534z"/>
			<path clip-path="url(#SVGID_4_)" fill="#F68A30" d="M13.856,18.386c-2.7,2.701-6.24,4.052-9.78,4.052
				c-0.885,0-1.77-0.083-2.641-0.253c-0.437-0.084-0.869-0.19-1.297-0.316h0.564V0.009h13.154v-1.184
				C19.258,4.227,19.258,12.984,13.856,18.386z"/>
			<path clip-path="url(#SVGID_4_)" fill="#F68B31" d="M13.709,18.238c-2.66,2.661-6.146,3.991-9.633,3.991
				c-1.743,0-3.486-0.333-5.126-0.998h1.752V0.009h13.007v-1.036C19.029,4.293,19.029,12.918,13.709,18.238z"/>
			<path clip-path="url(#SVGID_4_)" fill="#F68B31" d="M13.562,18.091c-2.619,2.619-6.052,3.93-9.485,3.93
				c-1.716,0-3.433-0.328-5.047-0.983h1.673V0.009h12.859v-0.888C18.8,4.359,18.8,12.853,13.562,18.091z"/>
			<path clip-path="url(#SVGID_4_)" fill="#F68C31" d="M13.414,17.943c-2.579,2.579-5.958,3.868-9.338,3.868
				c-1.69,0-3.379-0.323-4.969-0.968h1.595V0.009h12.712v-0.74C18.57,4.425,18.57,12.787,13.414,17.943z"/>
			<path clip-path="url(#SVGID_4_)" fill="#F78D31" d="M13.267,17.796c-2.538,2.538-5.864,3.807-9.19,3.807
				c-1.663,0-3.326-0.317-4.89-0.951h1.516V0.009h12.564v-0.593C18.341,4.491,18.341,12.721,13.267,17.796z"/>
			<path clip-path="url(#SVGID_4_)" fill="#F78E31" d="M13.119,17.648c-2.497,2.497-5.77,3.745-9.042,3.745
				c-1.636,0-3.272-0.312-4.812-0.936h1.438V0.009h12.417v-0.445C18.112,4.558,18.112,12.654,13.119,17.648z"/>
			<path clip-path="url(#SVGID_4_)" fill="#F78E32" d="M12.971,17.501c-2.456,2.456-5.676,3.685-8.895,3.685
				c-1.609,0-3.219-0.308-4.733-0.923h1.359V0.009h12.269v-0.298C17.883,4.624,17.883,12.588,12.971,17.501z"/>
			<path clip-path="url(#SVGID_4_)" fill="#F78F32" d="M12.824,17.354c-2.417,2.415-5.581,3.623-8.748,3.623
				c-1.583,0-3.166-0.303-4.654-0.906h1.28V0.009h12.122v-0.15C17.654,4.69,17.654,12.522,12.824,17.354z"/>
			<path clip-path="url(#SVGID_4_)" fill="#F79032" d="M12.675,17.206c-2.375,2.374-5.487,3.561-8.599,3.561
				c-1.556,0-3.112-0.297-4.576-0.89h1.202V0.009h11.973V0.006C17.424,4.756,17.424,12.456,12.675,17.206z"/>
			<path clip-path="url(#SVGID_4_)" fill="#F79032" d="M12.528,17.058c-2.333,2.333-5.393,3.502-8.452,3.502
				c-1.529,0-3.059-0.293-4.498-0.876h1.124V0.009h9.951v-1.386c0.663,0.438,1.292,0.948,1.875,1.531
				C17.195,4.822,17.195,12.39,12.528,17.058z"/>
			<path clip-path="url(#SVGID_4_)" fill="#F79132" d="M12.38,16.91c-2.293,2.293-5.298,3.439-8.304,3.439
				c-1.503,0-3.005-0.287-4.419-0.86h1.045V0.009h9.836v-1.211c0.651,0.43,1.269,0.932,1.842,1.504
				C16.966,4.888,16.966,12.324,12.38,16.91z"/>
			<path clip-path="url(#SVGID_4_)" fill="#F79232" d="M12.232,16.762C9.98,19.014,7.028,20.14,4.076,20.14
				c-1.476,0-2.952-0.279-4.341-0.844h0.967V0.009h9.721v-1.038c0.64,0.423,1.247,0.915,1.81,1.478
				C16.736,4.955,16.736,12.257,12.232,16.762z"/>
			<path clip-path="url(#SVGID_4_)" fill="#F79233" d="M12.085,16.614c-2.211,2.212-5.11,3.317-8.009,3.317
				c-1.449,0-2.898-0.275-4.262-0.828h0.888V0.009h9.606v-0.862c0.628,0.414,1.224,0.898,1.777,1.451
				C16.508,5.021,16.508,12.191,12.085,16.614z"/>
			<path clip-path="url(#SVGID_4_)" fill="#F79333" d="M11.938,16.467c-2.171,2.17-5.016,3.256-7.861,3.256
				c-1.422,0-2.845-0.271-4.183-0.813h0.809v-18.9h7.557v-1.706c1.339,0.543,2.593,1.357,3.678,2.442
				C16.279,5.086,16.279,12.125,11.938,16.467z"/>
			<path clip-path="url(#SVGID_4_)" fill="#F79433" d="M11.79,16.319c-2.13,2.13-4.921,3.194-7.714,3.194
				c-1.396,0-2.792-0.266-4.104-0.799h0.73V0.009h7.479v-1.512c1.313,0.532,2.543,1.331,3.608,2.396
				C16.049,5.152,16.049,12.06,11.79,16.319z"/>
			<path clip-path="url(#SVGID_4_)" fill="#F79533" d="M11.643,16.172c-2.09,2.089-4.828,3.134-7.566,3.134
				c-1.369,0-2.738-0.262-4.026-0.783h0.652V0.009h7.4v-1.319c1.288,0.522,2.495,1.307,3.54,2.351
				C15.82,5.219,15.82,11.994,11.643,16.172z"/>
			<path clip-path="url(#SVGID_4_)" fill="#F89533" d="M11.494,16.024c-2.048,2.048-4.733,3.072-7.418,3.072
				c-1.342,0-2.685-0.257-3.948-0.768h0.574V0.009h7.322v-1.125c1.263,0.512,2.446,1.28,3.47,2.304
				C15.591,5.284,15.591,11.927,11.494,16.024z"/>
			<path clip-path="url(#SVGID_4_)" fill="#F89634" d="M11.347,15.877c-2.008,2.007-4.639,3.01-7.271,3.01
				c-1.316,0-2.631-0.25-3.869-0.751h0.495V0.009h3.374v-1.685c2.632,0,5.263,1.004,7.271,3.011
				C15.362,5.351,15.362,11.861,11.347,15.877z"/>
			<path clip-path="url(#SVGID_4_)" fill="#F89734" d="M11.199,15.729c-1.967,1.966-4.545,2.949-7.123,2.949
				c-1.289,0-2.578-0.246-3.791-0.737h0.417V0.009h3.374v-1.476c2.578,0,5.156,0.983,7.123,2.951
				C15.133,5.417,15.133,11.794,11.199,15.729z"/>
			<path clip-path="url(#SVGID_4_)" fill="#F89734" d="M11.051,15.581c-1.926,1.926-4.45,2.889-6.975,2.889
				c-1.262,0-2.524-0.24-3.712-0.722h0.338V0.009h3.374v-1.267c2.525,0,5.049,0.963,6.975,2.889
				C14.903,5.483,14.903,11.729,11.051,15.581z"/>
			<path clip-path="url(#SVGID_4_)" fill="#F89834" d="M10.904,15.434c-1.885,1.885-4.356,2.827-6.828,2.827
				c-1.235,0-2.471-0.234-3.633-0.706h0.259V0.009h3.374V-1.05c2.471,0,4.942,0.943,6.828,2.829
				C14.674,5.549,14.674,11.663,10.904,15.434z"/>
			<path clip-path="url(#SVGID_4_)" fill="#F89935" d="M10.756,15.286c-1.845,1.845-4.262,2.767-6.68,2.767
				c-1.209,0-2.417-0.23-3.554-0.691h0.18V0.009h3.374v-0.85c2.418,0,4.835,0.922,6.68,2.767
				C14.445,5.615,14.445,11.597,10.756,15.286z"/>
			<path clip-path="url(#SVGID_4_)" fill="#F89A35" d="M10.608,15.138c-1.803,1.805-4.168,2.706-6.532,2.706
				c-1.182,0-2.364-0.226-3.476-0.677h0.102V0.044H0.6c1.112-0.451,2.294-0.677,3.476-0.677c2.364,0,4.729,0.902,6.532,2.706
				C14.215,5.682,14.215,11.531,10.608,15.138z"/>
			<path clip-path="url(#SVGID_4_)" fill="#F89A35" d="M10.461,14.99c-1.764,1.764-4.074,2.646-6.385,2.646
				c-1.155,0-2.311-0.222-3.397-0.662h0.023V0.238H0.679c1.086-0.44,2.243-0.662,3.397-0.662c2.311,0,4.621,0.882,6.385,2.645
				C13.986,5.747,13.986,11.464,10.461,14.99z"/>
			<path clip-path="url(#SVGID_4_)" fill="#F89B35" d="M10.313,14.843c-1.723,1.723-3.98,2.583-6.237,2.583
				c-1.129,0-2.257-0.215-3.319-0.645c-0.531-0.216-1.045-0.485-1.534-0.809h1.479V1.238h-1.479
				c0.489-0.323,1.003-0.591,1.534-0.807c1.062-0.43,2.19-0.646,3.319-0.646c2.257,0,4.515,0.862,6.237,2.583
				C13.757,5.813,13.757,11.398,10.313,14.843z"/>
			<path clip-path="url(#SVGID_4_)" fill="#F99C35" d="M10.166,14.695c-1.682,1.682-3.886,2.521-6.09,2.521
				c-1.102,0-2.204-0.209-3.241-0.631c-0.518-0.209-1.02-0.472-1.498-0.787h1.364V1.413h-1.364c0.478-0.316,0.979-0.578,1.498-0.788
				c1.037-0.42,2.139-0.631,3.241-0.631c2.204,0,4.408,0.841,6.09,2.523C13.529,5.88,13.529,11.332,10.166,14.695z"/>
			<path clip-path="url(#SVGID_4_)" fill="#F99C36" d="M10.018,14.547c-1.641,1.642-3.791,2.462-5.942,2.462
				c-1.075,0-2.15-0.206-3.162-0.616c-0.506-0.205-0.996-0.461-1.462-0.769h1.25V1.588h-1.25c0.466-0.308,0.956-0.564,1.462-0.769
				c1.011-0.41,2.086-0.616,3.162-0.616c2.151,0,4.301,0.82,5.942,2.461C13.299,5.946,13.299,11.266,10.018,14.547z"/>
			<path clip-path="url(#SVGID_4_)" fill="#F99D36" d="M9.87,14.4C8.271,16,6.173,16.8,4.076,16.8c-1.048,0-2.097-0.2-3.083-0.6
				C0.5,16,0.022,15.75-0.432,15.45h1.134V1.761h-1.134c0.455-0.3,0.932-0.549,1.425-0.75c0.987-0.4,2.035-0.6,3.083-0.6
				c2.097,0,4.194,0.8,5.794,2.4C13.07,6.012,13.07,11.2,9.87,14.4z"/>
			<path clip-path="url(#SVGID_4_)" fill="#F99E36" d="M9.723,14.253c-1.559,1.558-3.603,2.338-5.646,2.338
				c-1.022,0-2.043-0.194-3.004-0.585c-0.481-0.195-0.946-0.438-1.389-0.73h1.02V1.937h-1.02C0.125,1.644,0.591,1.4,1.072,1.206
				c0.961-0.39,1.982-0.585,3.004-0.585c2.044,0,4.087,0.779,5.646,2.338C12.841,6.078,12.841,11.133,9.723,14.253z"/>
			<path clip-path="url(#SVGID_4_)" fill="#F99F36" d="M9.575,14.105c-1.518,1.518-3.509,2.276-5.499,2.276
				c-0.995,0-1.99-0.189-2.926-0.569c-0.468-0.189-0.921-0.427-1.352-0.712h0.904V2.11h-0.904C0.229,1.826,0.682,1.589,1.15,1.399
				C2.086,1.02,3.082,0.83,4.076,0.83c1.99,0,3.981,0.759,5.499,2.277C12.612,6.145,12.612,11.068,9.575,14.105z"/>
			<path clip-path="url(#SVGID_4_)" fill="#F99F36" d="M9.427,13.957c-1.478,1.478-3.415,2.216-5.351,2.216
				c-0.968,0-1.937-0.185-2.848-0.554c-0.456-0.185-0.896-0.415-1.316-0.692h0.79V2.285h-0.79c0.42-0.276,0.86-0.508,1.316-0.692
				c0.911-0.37,1.88-0.554,2.848-0.554c1.937,0,3.873,0.738,5.351,2.216C12.382,6.21,12.382,11.001,9.427,13.957z"/>
			<path clip-path="url(#SVGID_4_)" fill="#F9A037" d="M9.28,13.809c-1.437,1.437-3.32,2.155-5.204,2.155
				c-0.942,0-1.883-0.179-2.769-0.538c-0.443-0.18-0.872-0.403-1.28-0.674h0.675V2.459H0.027c0.408-0.27,0.837-0.494,1.28-0.674
				c0.886-0.359,1.827-0.538,2.769-0.538c1.883,0,3.767,0.718,5.204,2.155C12.153,6.276,12.153,10.936,9.28,13.809z"/>
			<path clip-path="url(#SVGID_4_)" fill="#F9A137" d="M9.132,13.662c-2.792,2.792-7.319,2.792-10.111,0h1.681V3.55h-1.681
				c2.792-2.792,7.319-2.792,10.111,0C11.924,6.342,11.924,10.87,9.132,13.662z"/>
			<path clip-path="url(#SVGID_4_)" fill="#F9A137" d="M8.984,13.514c-2.711,2.71-7.105,2.71-9.816,0h1.534V3.698h-1.534
				c2.71-2.711,7.105-2.711,9.816,0C11.695,6.408,11.695,10.804,8.984,13.514z"/>
			<path clip-path="url(#SVGID_4_)" fill="#F9A237" d="M8.837,13.367c-2.629,2.628-6.892,2.628-9.521,0h1.386V3.846h-1.386
				c2.629-2.629,6.892-2.629,9.521,0C11.466,6.475,11.466,10.737,8.837,13.367z"/>
			<path clip-path="url(#SVGID_4_)" fill="#FAA337" d="M8.689,13.218c-2.547,2.547-6.678,2.547-9.226,0h1.239V3.993h-1.239
				c2.547-2.547,6.678-2.547,9.226,0C11.236,6.541,11.236,10.671,8.689,13.218z"/>
			<path clip-path="url(#SVGID_4_)" fill="#FAA438" d="M8.542,13.071c-2.466,2.466-6.464,2.466-8.931,0h1.091v-8.93h-1.091
				c2.466-2.467,6.464-2.467,8.931,0C11.007,6.607,11.007,10.605,8.542,13.071z"/>
			<path clip-path="url(#SVGID_4_)" fill="#FAA438" d="M8.394,12.923c-2.385,2.384-6.25,2.384-8.635,0h0.943V4.289h-0.943
				c2.385-2.385,6.25-2.385,8.635,0C10.778,6.673,10.778,10.539,8.394,12.923z"/>
			<path clip-path="url(#SVGID_4_)" fill="#FAA538" d="M8.246,12.776c-2.303,2.303-6.036,2.303-8.34,0h0.796v-8.34h-0.796
				c2.304-2.303,6.037-2.303,8.34,0S10.549,10.473,8.246,12.776z"/>
			<path clip-path="url(#SVGID_4_)" fill="#FAA638" d="M8.099,12.628c-2.222,2.22-5.823,2.22-8.044,0h0.648V4.584H0.054
				c2.221-2.222,5.823-2.222,8.044,0C10.32,6.806,10.32,10.407,8.099,12.628z"/>
			<path clip-path="url(#SVGID_4_)" fill="#FAA739" d="M7.951,12.48c-2.14,2.14-5.61,2.14-7.75,0h0.5V4.731h-0.5
				c2.14-2.14,5.609-2.14,7.75,0C10.091,6.871,10.091,10.34,7.951,12.48z"/>
			<path clip-path="url(#SVGID_4_)" fill="#FAA739" d="M7.803,12.333c-2.058,2.058-5.396,2.058-7.454,0h0.353V4.879H0.349
				c2.059-2.058,5.396-2.058,7.454,0S9.861,10.274,7.803,12.333z"/>
			<path clip-path="url(#SVGID_4_)" fill="#FAA839" d="M7.655,12.185c-1.977,1.977-5.181,1.977-7.158,0h0.205V5.027H0.498
				c1.977-1.977,5.181-1.977,7.158,0C9.632,7.003,9.632,10.208,7.655,12.185z"/>
			<path clip-path="url(#SVGID_4_)" fill="#FAA939" d="M7.508,12.038c-1.896,1.895-4.968,1.895-6.863,0h0.057V5.174H0.645
				c1.895-1.896,4.967-1.896,6.863,0C9.403,7.069,9.403,10.143,7.508,12.038z"/>
			<circle clip-path="url(#SVGID_4_)" fill="#FAA93A" cx="4.076" cy="8.606" r="4.644"/>
			<circle clip-path="url(#SVGID_4_)" fill="#FBAA3A" cx="4.076" cy="8.606" r="4.435"/>
			<circle clip-path="url(#SVGID_4_)" fill="#FBAB3A" cx="4.076" cy="8.606" r="4.227"/>
			<circle clip-path="url(#SVGID_4_)" fill="#FBAC3A" cx="4.076" cy="8.606" r="4.018"/>
			<circle clip-path="url(#SVGID_4_)" fill="#FBAC3A" cx="4.077" cy="8.606" r="3.809"/>
			<circle clip-path="url(#SVGID_4_)" fill="#FBAD3B" cx="4.076" cy="8.606" r="3.6"/>
			<circle clip-path="url(#SVGID_4_)" fill="#FBAE3B" cx="4.076" cy="8.606" r="3.391"/>
			<circle clip-path="url(#SVGID_4_)" fill="#FBAF3B" cx="4.076" cy="8.606" r="3.183"/>
			<circle clip-path="url(#SVGID_4_)" fill="#FBAF3B" cx="4.076" cy="8.606" r="2.974"/>
			<circle clip-path="url(#SVGID_4_)" fill="#FBB03C" cx="4.076" cy="8.606" r="2.765"/>
		</g>
		<path fill="#010101" d="M12.205,25.417L12.205,25.417c-0.495,0-1.004-0.07-1.515-0.208c-1.501-0.404-2.66-1.297-3.443-2.654
			L1.805,13.13c-0.783-1.357-0.978-2.807-0.577-4.309c0.401-1.502,1.29-2.661,2.644-3.442l6.149-3.55
			c1.541-0.89,2.773-1.406,3.665-1.534c1.207-0.165,2.119,0.275,2.712,1.302c0.618,1.075,0.645,2.035,0.073,2.854
			c-0.388,0.576-1.208,1.22-2.502,1.968c-1.378,0.795-2.251,1.352-2.594,1.653c-0.63,0.542-0.81,1.024-0.549,1.475
			c0.283,0.49,0.685,0.642,1.237,0.476c0.222-0.067,0.866-0.409,1.914-1.014c0.767-0.442,1.581-0.579,2.411-0.405
			c0.838,0.175,1.472,0.625,1.88,1.334c0.401,0.694,0.47,1.459,0.203,2.272c-0.265,0.808-0.789,1.443-1.558,1.886
			c-0.886,0.513-1.483,0.93-1.773,1.239c-0.406,0.428-0.489,0.835-0.253,1.245c0.233,0.405,0.742,0.471,1.525,0.213
			c0.562-0.179,1.488-0.639,2.755-1.371c1.245-0.719,2.251-1.102,2.989-1.137c0.058-0.003,0.119-0.006,0.178-0.006
			c0.92,0,1.667,0.487,2.223,1.451c0.622,1.077,0.551,2.096-0.217,3.025c-0.519,0.622-1.595,1.406-3.2,2.332l-6.148,3.55
			C14.099,25.156,13.162,25.417,12.205,25.417z M14.164,0.517c-0.142,0-0.291,0.01-0.444,0.031
			c-0.857,0.124-2.059,0.628-3.572,1.501L3.999,5.6C2.707,6.346,1.857,7.452,1.475,8.887c-0.383,1.434-0.197,2.819,0.551,4.116
			l5.442,9.425c0.748,1.296,1.854,2.149,3.289,2.535c1.434,0.387,2.813,0.204,4.108-0.544l6.148-3.55
			c1.578-0.911,2.633-1.677,3.132-2.275c0.699-0.85,0.764-1.745,0.19-2.734c-0.547-0.948-1.259-1.378-2.165-1.317
			c-0.699,0.033-1.665,0.405-2.875,1.104c-1.283,0.74-2.227,1.21-2.805,1.393c-0.913,0.3-1.528,0.186-1.825-0.328
			c-0.296-0.515-0.199-1.035,0.29-1.548c0.31-0.332,0.909-0.753,1.831-1.285c0.712-0.412,1.198-0.999,1.443-1.746
			c0.242-0.741,0.182-1.436-0.183-2.065c-0.371-0.645-0.947-1.052-1.711-1.212c-0.77-0.161-1.519-0.035-2.231,0.376
			c-1.08,0.624-1.723,0.963-1.967,1.038c-0.671,0.201-1.192-0.003-1.533-0.594c-0.327-0.566-0.124-1.17,0.603-1.794
			c0.359-0.316,1.221-0.867,2.633-1.683c1.244-0.718,2.059-1.354,2.42-1.89c0.518-0.743,0.489-1.587-0.085-2.582
			C15.706,0.912,15.048,0.517,14.164,0.517z"/>
	</g>
	<g>
		<g>
			<defs>
				<path id="SVGID_5_" d="M22.161,14.353c-0.719,0.034-1.696,0.408-2.93,1.12c-1.282,0.74-2.209,1.201-2.779,1.383
					c-0.853,0.279-1.41,0.189-1.676-0.271c-0.266-0.461-0.177-0.926,0.271-1.396c0.3-0.321,0.901-0.742,1.803-1.264
					c0.743-0.429,1.243-1.035,1.5-1.816c0.257-0.78,0.192-1.503-0.191-2.168c-0.394-0.681-0.992-1.105-1.796-1.273
					c-0.805-0.169-1.578-0.038-2.322,0.391c-1.06,0.612-1.708,0.955-1.94,1.025c-0.611,0.184-1.073,0.005-1.385-0.535
					c-0.293-0.508-0.102-1.053,0.576-1.634c0.35-0.308,1.221-0.865,2.613-1.669c1.266-0.73,2.087-1.374,2.462-1.93
					c0.543-0.779,0.517-1.684-0.08-2.717c-0.568-0.984-1.429-1.398-2.583-1.24c-0.877,0.125-2.083,0.631-3.619,1.518l-6.149,3.55
					c-1.329,0.768-2.19,1.89-2.583,3.365s-0.205,2.879,0.564,4.212l5.442,9.425c0.769,1.333,1.891,2.198,3.366,2.596
					c1.474,0.396,2.876,0.211,4.205-0.558l6.149-3.55c1.599-0.923,2.654-1.689,3.165-2.304c0.732-0.887,0.8-1.849,0.204-2.88
					C23.878,14.749,23.116,14.289,22.161,14.353z"/>
			</defs>
			<clipPath id="SVGID_6_">
				<use xlink:href="#SVGID_5_"  overflow="visible"/>
			</clipPath>
			<rect x="0.958" y="0.202" clip-path="url(#SVGID_6_)" fill="#F15C27" width="24.084" height="25.22"/>
			<path clip-path="url(#SVGID_6_)" fill="#F15C27" d="M22.715,25.678H0.702v-25.73h24.595v23.102h0.796
				c-0.965,1.461-2.091,2.849-3.378,4.135V25.678z"/>
			<path clip-path="url(#SVGID_6_)" fill="#F15D27" d="M22.568,25.678H0.702v-25.73h24.595v22.987h0.621
				c-0.957,1.449-2.074,2.824-3.35,4.102V25.678z"/>
			<path clip-path="url(#SVGID_6_)" fill="#F15E27" d="M22.42,25.678H0.702v-25.73h24.595v22.872h0.447
				c-0.95,1.438-2.058,2.803-3.324,4.068V25.678z"/>
			<path clip-path="url(#SVGID_6_)" fill="#F15F27" d="M22.272,25.678H0.702v-25.73h24.595v22.757h0.272
				c-0.941,1.428-2.041,2.78-3.297,4.037V25.678z"/>
			<path clip-path="url(#SVGID_6_)" fill="#F15F27" d="M22.125,25.678H0.702v-25.73h24.595v22.642h0.099
				c-0.936,1.416-2.024,2.758-3.271,4.004V25.678z"/>
			<path clip-path="url(#SVGID_6_)" fill="#F16027" d="M21.978,25.678H0.702v-25.73h24.595v20.37h1.198
				c-0.386,0.735-0.811,1.455-1.274,2.156c-0.927,1.404-2.008,2.735-3.243,3.973V25.678z"/>
			<path clip-path="url(#SVGID_6_)" fill="#F26127" d="M21.83,25.678H0.702v-25.73h24.595V20.22h1.014
				c-0.383,0.73-0.804,1.443-1.264,2.14c-0.919,1.393-1.992,2.714-3.217,3.938V25.678z"/>
			<path clip-path="url(#SVGID_6_)" fill="#F26227" d="M21.682,25.678H0.702v-25.73h24.595v20.177h0.829
				c-0.38,0.722-0.798,1.431-1.254,2.12c-0.912,1.381-1.975,2.691-3.19,3.907V25.678z"/>
			<path clip-path="url(#SVGID_6_)" fill="#F26328" d="M21.535,25.678H0.702v-25.73h24.595v17.889h1.661
				c-1.205,2.972-3.013,5.756-5.423,8.167V25.678z"/>
			<path clip-path="url(#SVGID_6_)" fill="#F26428" d="M21.386,25.678H0.702v-25.73h24.595v17.81h1.467
				c-1.194,2.947-2.986,5.708-5.378,8.1V25.678z"/>
			<path clip-path="url(#SVGID_6_)" fill="#F26428" d="M21.238,25.678H0.702v-25.73h24.595v17.73h1.273
				c-1.186,2.922-2.961,5.659-5.332,8.03V25.678z"/>
			<path clip-path="url(#SVGID_6_)" fill="#F26528" d="M21.091,25.56c-0.587,0.588-1.197,1.139-1.828,1.651v-1.533H0.702v-25.73
				h24.595v17.651h1.08C25.203,20.496,23.44,23.21,21.091,25.56z"/>
			<path clip-path="url(#SVGID_6_)" fill="#F26628" d="M20.943,25.412c-0.582,0.582-1.187,1.128-1.812,1.638v-1.372H0.702v-25.73
				h24.595v17.574h0.887C25.02,20.392,23.272,23.084,20.943,25.412z"/>
			<path clip-path="url(#SVGID_6_)" fill="#F26728" d="M20.796,25.264c-0.577,0.578-1.177,1.119-1.796,1.623v-1.209H0.702v-25.73
				h24.595v17.495h0.693C24.835,20.288,23.105,22.956,20.796,25.264z"/>
			<path clip-path="url(#SVGID_6_)" fill="#F26828" d="M20.648,25.117c-0.572,0.572-1.166,1.108-1.78,1.609v-1.049H0.702v-25.73
				h24.595v17.416h0.5C24.653,20.186,22.937,22.829,20.648,25.117z"/>
			<path clip-path="url(#SVGID_6_)" fill="#F26929" d="M20.501,24.969c-0.567,0.567-1.157,1.099-1.765,1.596v-0.887H0.702v-25.73
				h24.595v17.339h0.307C24.469,20.082,22.769,22.702,20.501,24.969z"/>
			<path clip-path="url(#SVGID_6_)" fill="#F26A29" d="M20.354,24.821c-0.563,0.562-1.146,1.089-1.748,1.581v-0.725H0.702v-25.73
				h24.595v17.26h0.112C24.285,19.979,22.601,22.574,20.354,24.821z"/>
			<path clip-path="url(#SVGID_6_)" fill="#F26A29" d="M20.205,24.674c-0.557,0.558-1.135,1.079-1.732,1.565v-0.562H0.702v-25.73
				h24.07V-1.06c0.156,0.337,0.305,0.678,0.443,1.021c1.114,2.746,1.67,5.665,1.67,8.584C26.886,14.382,24.659,20.22,20.205,24.674z
				"/>
			<path clip-path="url(#SVGID_6_)" fill="#F36B29" d="M20.058,24.526c-1.104,1.104-2.293,2.068-3.546,2.896v-1.745H0.702v-25.73
				h23.881v-0.919c0.155,0.334,0.301,0.671,0.44,1.012c1.103,2.72,1.654,5.613,1.654,8.505
				C26.678,14.329,24.471,20.113,20.058,24.526z"/>
			<path clip-path="url(#SVGID_6_)" fill="#F36C29" d="M19.91,24.379c-1.093,1.093-2.271,2.049-3.513,2.869v-1.57H0.702v-25.73
				h23.691v-0.832c0.153,0.332,0.299,0.666,0.436,1.003c1.093,2.695,1.639,5.561,1.639,8.427
				C26.468,14.276,24.283,20.007,19.91,24.379z"/>
			<path clip-path="url(#SVGID_6_)" fill="#F36D29" d="M19.762,24.231c-1.082,1.083-2.25,2.029-3.479,2.843v-1.396H0.702v-25.73
				h23.02v-1.719c0.339,0.645,0.644,1.301,0.913,1.969c1.083,2.67,1.624,5.509,1.624,8.348
				C26.259,14.222,24.094,19.899,19.762,24.231z"/>
			<path clip-path="url(#SVGID_6_)" fill="#F36E29" d="M19.614,24.084c-1.073,1.072-2.229,2.01-3.447,2.815v-1.222H0.702v-25.73
				h22.835v-1.623c0.335,0.638,0.637,1.289,0.905,1.951c1.071,2.646,1.608,5.458,1.608,8.27
				C26.051,14.168,23.906,19.792,19.614,24.084z"/>
			<path clip-path="url(#SVGID_6_)" fill="#F36E2A" d="M19.467,23.936c-1.062,1.063-2.207,1.992-3.414,2.79v-1.048H0.702v-25.73
				h22.65v-1.525c0.332,0.631,0.631,1.276,0.896,1.932c1.063,2.62,1.593,5.405,1.593,8.191
				C25.842,14.115,23.717,19.686,19.467,23.936z"/>
			<path clip-path="url(#SVGID_6_)" fill="#F36F2A" d="M19.319,23.788c-1.053,1.052-2.187,1.973-3.382,2.763v-0.873H0.702v-25.73
				h22.465V-1.48c0.329,0.626,0.625,1.264,0.888,1.913c1.053,2.595,1.578,5.354,1.578,8.113
				C25.633,14.063,23.529,19.579,19.319,23.788z"/>
			<path clip-path="url(#SVGID_6_)" fill="#F3702A" d="M19.172,23.64c-1.042,1.044-2.165,1.954-3.349,2.736v-0.698H0.702v-25.73
				h22.281v-1.331c0.325,0.62,0.618,1.252,0.878,1.895c1.043,2.57,1.563,5.302,1.563,8.034C25.425,14.009,23.34,19.472,19.172,23.64
				z"/>
			<path clip-path="url(#SVGID_6_)" fill="#F3712A" d="M19.024,23.493c-1.032,1.032-2.145,1.935-3.316,2.709v-0.524H0.702v-25.73
				h22.095v-1.234c0.322,0.614,0.612,1.24,0.871,1.876c1.032,2.545,1.548,5.25,1.548,7.956
				C25.216,13.955,23.152,19.365,19.024,23.493z"/>
			<path clip-path="url(#SVGID_6_)" fill="#F3722A" d="M18.876,23.345c-1.021,1.022-2.122,1.915-3.283,2.683v-0.35H0.702v-25.73
				h21.91v-1.136c0.319,0.607,0.606,1.227,0.861,1.857c1.022,2.52,1.533,5.198,1.533,7.877
				C25.007,13.901,22.963,19.258,18.876,23.345z"/>
			<path clip-path="url(#SVGID_6_)" fill="#F3722A" d="M18.729,23.197c-1.013,1.012-2.103,1.896-3.252,2.656v-0.176H0.702v-25.73
				h21.726v-1.04c0.315,0.602,0.601,1.215,0.854,1.839c1.012,2.494,1.517,5.146,1.517,7.798
				C24.798,13.848,22.775,19.151,18.729,23.197z"/>
			<path clip-path="url(#SVGID_6_)" fill="#F3732A" d="M18.581,23.05c-1.001,1.001-2.08,1.878-3.218,2.629v-0.001H0.702v-25.73
				h21.54v-0.942c0.313,0.596,0.595,1.204,0.845,1.82c1.001,2.47,1.502,5.095,1.502,7.72C24.589,13.794,22.586,19.044,18.581,23.05z
				"/>
			<path clip-path="url(#SVGID_6_)" fill="#F3742B" d="M18.434,22.902c-1.982,1.981-4.272,3.469-6.716,4.46v-1.685H0.702v-25.73
				h21.355v-0.845c0.31,0.589,0.589,1.191,0.836,1.802c0.99,2.444,1.487,5.042,1.487,7.641
				C24.381,13.741,22.398,18.938,18.434,22.902z"/>
			<path clip-path="url(#SVGID_6_)" fill="#F4752B" d="M18.286,22.755c-1.962,1.961-4.229,3.433-6.647,4.414v-1.491H0.702v-25.73
				h21.171v-0.749c0.306,0.583,0.582,1.179,0.827,1.784c0.98,2.419,1.472,4.991,1.472,7.563
				C24.172,13.688,22.209,18.831,18.286,22.755z"/>
			<path clip-path="url(#SVGID_6_)" fill="#F4752B" d="M18.138,22.607c-1.941,1.94-4.184,3.397-6.578,4.368v-1.298H0.702v-25.73
				h20.985v-0.651c0.304,0.577,0.576,1.166,0.819,1.765C23.479,3.455,23.963,6,23.963,8.545
				C23.963,13.634,22.021,18.724,18.138,22.607z"/>
			<path clip-path="url(#SVGID_6_)" fill="#F4762B" d="M17.99,22.459c-1.921,1.922-4.14,3.362-6.509,4.323v-1.104H0.702v-25.73
				h20.801v-0.554c0.3,0.571,0.57,1.154,0.811,1.746c0.961,2.369,1.44,4.887,1.44,7.406C23.754,13.581,21.833,18.617,17.99,22.459z"
				/>
			<path clip-path="url(#SVGID_6_)" fill="#F4772B" d="M17.843,22.312c-1.9,1.9-4.096,3.326-6.44,4.276v-0.91H0.702v-25.73h20.616
				V-0.51c0.297,0.565,0.564,1.142,0.802,1.728c0.95,2.344,1.425,4.835,1.425,7.327C23.545,13.527,21.645,18.51,17.843,22.312z"/>
			<path clip-path="url(#SVGID_6_)" fill="#F4782B" d="M17.695,22.163c-1.881,1.881-4.052,3.292-6.371,4.232v-0.718H0.702v-25.73
				h20.431v-0.36c0.294,0.56,0.559,1.13,0.793,1.709c0.94,2.318,1.41,4.783,1.41,7.248C23.336,13.474,21.456,18.403,17.695,22.163z"
				/>
			<path clip-path="url(#SVGID_6_)" fill="#F4782C" d="M17.547,22.016c-1.859,1.861-4.007,3.256-6.301,4.186v-0.523H0.702v-25.73
				h20.246v-0.262c0.29,0.552,0.552,1.117,0.785,1.69c0.929,2.293,1.395,4.731,1.395,7.169
				C23.128,13.42,21.267,18.296,17.547,22.016z"/>
			<path clip-path="url(#SVGID_6_)" fill="#F4792C" d="M17.4,21.868c-3.679,3.68-8.502,5.519-13.324,5.519v-1.709H0.702v-25.73
				h19.112v-1.771c0.689,1.045,1.265,2.144,1.725,3.278c0.92,2.268,1.38,4.679,1.38,7.091C22.919,13.367,21.079,18.189,17.4,21.868z
				"/>
			<path clip-path="url(#SVGID_6_)" fill="#F47A2C" d="M17.252,21.721c-3.637,3.639-8.407,5.458-13.176,5.458v-1.501H0.702v-25.73
				H19.64v-1.656c0.683,1.033,1.251,2.119,1.706,3.241c0.91,2.243,1.364,4.628,1.364,7.013
				C22.71,13.313,20.891,18.083,17.252,21.721z"/>
			<path clip-path="url(#SVGID_6_)" fill="#F47A2C" d="M17.105,21.573c-3.599,3.598-8.313,5.396-13.029,5.396v-1.292H0.702v-25.73
				h18.763v-1.541c0.675,1.021,1.238,2.096,1.688,3.205c0.899,2.218,1.35,4.576,1.35,6.934
				C22.502,13.26,20.703,17.976,17.105,21.573z"/>
			<path clip-path="url(#SVGID_6_)" fill="#F47B2C" d="M16.957,21.426c-3.557,3.558-8.219,5.335-12.881,5.335v-1.083H0.702v-25.73
				h18.589v-1.426c0.668,1.01,1.223,2.072,1.668,3.168c0.889,2.193,1.333,4.524,1.333,6.855
				C22.292,13.207,20.514,17.868,16.957,21.426z"/>
			<path clip-path="url(#SVGID_6_)" fill="#F47C2C" d="M16.81,21.278c-3.516,3.516-8.125,5.274-12.733,5.274v-0.875H0.702v-25.73
				h18.415v-1.312c0.659,0.999,1.209,2.049,1.647,3.133c0.88,2.167,1.319,4.472,1.319,6.776
				C22.084,13.153,20.326,17.761,16.81,21.278z"/>
			<path clip-path="url(#SVGID_6_)" fill="#F47D2D" d="M16.661,21.131c-3.475,3.476-8.03,5.212-12.585,5.212v-0.665H0.702v-25.73
				h18.24v-1.196c0.651,0.987,1.194,2.024,1.629,3.096c0.869,2.143,1.304,4.42,1.304,6.698C21.875,13.1,20.137,17.655,16.661,21.131
				z"/>
			<path clip-path="url(#SVGID_6_)" fill="#F47D2D" d="M16.514,20.983c-3.434,3.434-7.935,5.15-12.438,5.15v-0.456H0.717v0.135
				c-0.555-0.106-1.105-0.241-1.648-0.402h1.634V-0.053h18.065v-1.082c0.644,0.976,1.182,2,1.61,3.059
				c0.858,2.118,1.288,4.369,1.288,6.62C21.666,13.046,19.949,17.548,16.514,20.983z"/>
			<path clip-path="url(#SVGID_6_)" fill="#F57E2D" d="M16.366,20.835c-3.393,3.395-7.842,5.091-12.29,5.091
				c-1.112,0-2.224-0.105-3.32-0.317c-0.547-0.106-1.091-0.239-1.629-0.399h1.575V-0.053h17.891v-0.966
				c0.638,0.963,1.167,1.977,1.593,3.023c0.848,2.092,1.271,4.316,1.271,6.541C21.457,12.993,19.76,17.441,16.366,20.835z"/>
			<path clip-path="url(#SVGID_6_)" fill="#F57F2D" d="M16.219,20.688c-3.352,3.353-7.748,5.029-12.143,5.029
				c-1.098,0-2.197-0.104-3.279-0.313c-0.542-0.105-1.079-0.236-1.61-0.395h1.515V-0.053h17.717v-0.852
				c0.629,0.952,1.153,1.953,1.572,2.987c0.839,2.066,1.258,4.264,1.258,6.462C21.249,12.939,19.572,17.335,16.219,20.688z"/>
			<path clip-path="url(#SVGID_6_)" fill="#F57F2D" d="M16.071,20.539c-3.313,3.313-7.653,4.969-11.995,4.969
				c-1.085,0-2.17-0.103-3.24-0.31c-0.535-0.104-1.064-0.233-1.589-0.389h1.456V-0.053h17.543v-0.736
				c0.621,0.94,1.139,1.929,1.553,2.95c0.828,2.042,1.241,4.213,1.241,6.384C21.039,12.886,19.384,17.229,16.071,20.539z"/>
			<path clip-path="url(#SVGID_6_)" fill="#F5802E" d="M15.924,20.392c-3.271,3.271-7.56,4.907-11.848,4.907
				c-1.072,0-2.144-0.102-3.2-0.306c-0.529-0.104-1.053-0.231-1.571-0.384h1.396V-0.053H18.07v-0.622
				c0.613,0.929,1.125,1.906,1.534,2.915c0.817,2.017,1.227,4.161,1.227,6.305C20.831,12.833,19.195,17.12,15.924,20.392z"/>
			<path clip-path="url(#SVGID_6_)" fill="#F5812E" d="M15.776,20.244c-3.231,3.232-7.465,4.846-11.7,4.846
				c-1.058,0-2.117-0.101-3.16-0.303c-0.521-0.101-1.04-0.227-1.551-0.378h1.337V-0.053h17.194V-0.56
				c0.605,0.917,1.11,1.882,1.514,2.878c0.808,1.992,1.212,4.109,1.212,6.227C20.622,12.779,19.007,17.013,15.776,20.244z"/>
			<path clip-path="url(#SVGID_6_)" fill="#F5822E" d="M15.628,20.097c-3.189,3.189-7.37,4.785-11.552,4.785
				c-1.045,0-2.091-0.099-3.12-0.299c-0.515-0.099-1.026-0.224-1.531-0.374h1.277V-0.053h17.019v-0.393
				c0.599,0.906,1.098,1.859,1.496,2.842c0.797,1.966,1.196,4.057,1.196,6.148C20.413,12.726,18.818,16.907,15.628,20.097z"/>
			<path clip-path="url(#SVGID_6_)" fill="#F5822E" d="M15.481,19.949c-3.15,3.148-7.277,4.724-11.405,4.724
				c-1.032,0-2.064-0.098-3.08-0.295c-0.509-0.098-1.013-0.222-1.512-0.369h1.218V-0.053h16.845V-0.33
				c0.59,0.894,1.083,1.834,1.477,2.805c0.787,1.941,1.182,4.005,1.182,6.069C20.205,12.672,18.63,16.8,15.481,19.949z"/>
			<path clip-path="url(#SVGID_6_)" fill="#F5832E" d="M15.333,19.802c-3.108,3.107-7.183,4.662-11.257,4.662
				c-1.018,0-2.037-0.097-3.041-0.291c-0.501-0.097-1-0.219-1.491-0.363h1.158V-0.053h16.671v-0.163
				c0.583,0.883,1.068,1.811,1.457,2.769c0.777,1.917,1.166,3.954,1.166,5.991C19.996,12.619,18.441,16.693,15.333,19.802z"/>
			<path clip-path="url(#SVGID_6_)" fill="#F5842F" d="M15.186,19.654c-3.067,3.067-7.088,4.602-11.109,4.602
				c-1.005,0-2.01-0.097-3.001-0.288c-0.495-0.096-0.986-0.216-1.472-0.358h1.099V-0.053h16.496v-0.048
				c0.576,0.872,1.055,1.788,1.438,2.733c0.769,1.891,1.151,3.901,1.151,5.913C19.787,12.565,18.253,16.586,15.186,19.654z"/>
			<path clip-path="url(#SVGID_6_)" fill="#F5842F" d="M15.037,19.507c-3.026,3.027-6.993,4.54-10.961,4.54
				c-0.992,0-1.983-0.095-2.961-0.284c-0.488-0.095-0.973-0.213-1.453-0.354h1.04V-0.053h15.399V-1.24
				c0.331,0.406,0.639,0.825,0.923,1.254c0.566,0.859,1.04,1.763,1.418,2.696c0.758,1.866,1.136,3.85,1.136,5.834
				C19.578,12.512,18.064,16.479,15.037,19.507z"/>
			<path clip-path="url(#SVGID_6_)" fill="#F6852F" d="M14.89,19.359c-2.985,2.985-6.899,4.479-10.813,4.479
				c-0.979,0-1.957-0.094-2.921-0.279c-0.482-0.095-0.96-0.211-1.433-0.351h0.98V-0.053h15.237v-1.055
				c0.326,0.4,0.63,0.813,0.91,1.237c0.561,0.848,1.026,1.74,1.399,2.66c0.747,1.841,1.12,3.798,1.12,5.755
				C19.369,12.458,17.876,16.372,14.89,19.359z"/>
			<path clip-path="url(#SVGID_6_)" fill="#F6862F" d="M14.742,19.211c-2.945,2.946-6.805,4.418-10.666,4.418
				c-0.965,0-1.93-0.092-2.881-0.275c-0.476-0.094-0.947-0.207-1.414-0.346h0.92V-0.053h15.076v-0.924
				c0.321,0.396,0.621,0.803,0.896,1.221c0.554,0.837,1.013,1.716,1.381,2.624c0.736,1.816,1.104,3.746,1.104,5.677
				C19.16,12.405,17.688,16.265,14.742,19.211z"/>
			<path clip-path="url(#SVGID_6_)" fill="#F6872F" d="M14.594,19.063C11.69,21.968,7.883,23.42,4.076,23.42
				c-0.952,0-1.904-0.09-2.841-0.271c-0.468-0.092-0.934-0.205-1.394-0.34h0.861V-0.053h14.913v-0.792
				c0.318,0.39,0.613,0.792,0.886,1.204c0.544,0.825,0.998,1.692,1.361,2.587c0.726,1.791,1.09,3.694,1.09,5.598
				C18.952,12.352,17.499,16.159,14.594,19.063z"/>
			<path clip-path="url(#SVGID_6_)" fill="#F68730" d="M14.447,18.915c-2.864,2.865-6.617,4.296-10.371,4.296
				c-0.938,0-1.877-0.089-2.801-0.268c-0.462-0.089-0.921-0.202-1.375-0.335h0.802V-0.053h13.745v-1.774
				C20.175,3.901,20.175,13.188,14.447,18.915z"/>
			<path clip-path="url(#SVGID_6_)" fill="#F68830" d="M14.299,18.768c-2.822,2.823-6.522,4.235-10.223,4.235
				c-0.925,0-1.85-0.089-2.761-0.266c-0.456-0.087-0.908-0.198-1.354-0.329h0.742V-0.053h13.597v-1.626
				C19.945,3.967,19.945,13.122,14.299,18.768z"/>
			<path clip-path="url(#SVGID_6_)" fill="#F68930" d="M14.152,18.62c-2.783,2.783-6.429,4.174-10.076,4.174
				c-0.911,0-1.823-0.087-2.721-0.261c-0.449-0.087-0.895-0.196-1.335-0.326h0.683v-22.26h13.45v-1.479
				C19.716,4.033,19.716,13.056,14.152,18.62z"/>
			<path clip-path="url(#SVGID_6_)" fill="#F68930" d="M14.004,18.473c-2.741,2.741-6.334,4.111-9.928,4.111
				c-0.898,0-1.796-0.084-2.681-0.256c-0.443-0.086-0.882-0.193-1.316-0.321h0.624v-22.06h13.302v-1.331
				C19.487,4.1,19.487,12.989,14.004,18.473z"/>
			<path clip-path="url(#SVGID_6_)" fill="#F68A30" d="M13.856,18.325c-2.7,2.701-6.24,4.051-9.78,4.051
				c-0.885,0-1.77-0.084-2.641-0.253c-0.437-0.085-0.869-0.188-1.297-0.316h0.564V-0.053h13.154v-1.184
				C19.258,4.166,19.258,12.923,13.856,18.325z"/>
			<path clip-path="url(#SVGID_6_)" fill="#F68B31" d="M13.709,18.177c-2.66,2.66-6.146,3.99-9.633,3.99
				c-1.743,0-3.486-0.333-5.126-0.997h1.752V-0.053h13.007v-1.036C19.029,4.232,19.029,12.857,13.709,18.177z"/>
			<path clip-path="url(#SVGID_6_)" fill="#F68B31" d="M13.562,18.03c-2.619,2.619-6.052,3.929-9.485,3.929
				c-1.716,0-3.433-0.327-5.047-0.981h1.673v-21.03h12.859V-0.94C18.8,4.297,18.8,12.792,13.562,18.03z"/>
			<path clip-path="url(#SVGID_6_)" fill="#F68C31" d="M13.414,17.882c-2.579,2.578-5.958,3.868-9.338,3.868
				c-1.69,0-3.379-0.322-4.969-0.967h1.595V-0.053h12.712v-0.74C18.57,4.364,18.57,12.725,13.414,17.882z"/>
			<path clip-path="url(#SVGID_6_)" fill="#F78D31" d="M13.267,17.735c-2.538,2.537-5.864,3.806-9.19,3.806
				c-1.663,0-3.326-0.317-4.89-0.952h1.516V-0.053h12.564v-0.592C18.341,4.43,18.341,12.659,13.267,17.735z"/>
			<path clip-path="url(#SVGID_6_)" fill="#F78E31" d="M13.119,17.586c-2.497,2.498-5.77,3.747-9.042,3.747
				c-1.636,0-3.272-0.313-4.812-0.937h1.438V-0.053h12.417v-0.445C18.112,4.497,18.112,12.593,13.119,17.586z"/>
			<path clip-path="url(#SVGID_6_)" fill="#F78E32" d="M12.971,17.439c-2.456,2.456-5.676,3.684-8.895,3.684
				c-1.609,0-3.219-0.307-4.733-0.92h1.359V-0.053h12.269V-0.35C17.883,4.563,17.883,12.527,12.971,17.439z"/>
			<path clip-path="url(#SVGID_6_)" fill="#F78F32" d="M12.824,17.291c-2.417,2.416-5.581,3.623-8.748,3.623
				c-1.583,0-3.166-0.302-4.654-0.905h1.28V-0.053h12.122v-0.149C17.654,4.628,17.654,12.46,12.824,17.291z"/>
			<path clip-path="url(#SVGID_6_)" fill="#F79032" d="M12.675,17.145c-2.375,2.374-5.487,3.562-8.599,3.562
				c-1.556,0-3.112-0.297-4.576-0.891h1.202V-0.053h11.973v-0.002C17.424,4.695,17.424,12.395,12.675,17.145z"/>
			<path clip-path="url(#SVGID_6_)" fill="#F79032" d="M12.528,16.996c-2.333,2.334-5.393,3.501-8.452,3.501
				c-1.529,0-3.059-0.292-4.498-0.875h1.124V-0.053h9.951v-1.386c0.663,0.438,1.292,0.948,1.875,1.531
				C17.195,4.76,17.195,12.329,12.528,16.996z"/>
			<path clip-path="url(#SVGID_6_)" fill="#F79132" d="M12.38,16.849c-2.293,2.292-5.298,3.439-8.304,3.439
				c-1.503,0-3.005-0.286-4.419-0.859h1.045V-0.053h9.836v-1.211c0.651,0.43,1.269,0.932,1.842,1.504
				C16.966,4.827,16.966,12.263,12.38,16.849z"/>
			<path clip-path="url(#SVGID_6_)" fill="#F79232" d="M12.232,16.701C9.98,18.953,7.028,20.08,4.076,20.08
				c-1.476,0-2.952-0.282-4.341-0.845h0.967V-0.053h9.721V-1.09c0.64,0.422,1.247,0.915,1.81,1.478
				C16.736,4.893,16.736,12.196,12.232,16.701z"/>
			<path clip-path="url(#SVGID_6_)" fill="#F79233" d="M12.085,16.553c-2.211,2.211-5.11,3.317-8.009,3.317
				c-1.449,0-2.898-0.276-4.262-0.829h0.888V-0.053h9.606v-0.862c0.628,0.415,1.224,0.898,1.777,1.451
				C16.508,4.959,16.508,12.13,12.085,16.553z"/>
			<path clip-path="url(#SVGID_6_)" fill="#F79333" d="M11.938,16.406c-2.171,2.171-5.016,3.255-7.861,3.255
				c-1.422,0-2.845-0.271-4.183-0.813h0.809v-18.9h7.557v-1.706c1.339,0.543,2.593,1.356,3.678,2.443
				C16.279,5.025,16.279,12.064,11.938,16.406z"/>
			<path clip-path="url(#SVGID_6_)" fill="#F79433" d="M11.79,16.258c-2.13,2.129-4.921,3.195-7.714,3.195
				c-1.396,0-2.792-0.267-4.104-0.799h0.73V-0.053h7.479v-1.512c1.313,0.532,2.543,1.33,3.608,2.396
				C16.049,5.091,16.049,11.998,11.79,16.258z"/>
			<path clip-path="url(#SVGID_6_)" fill="#F79533" d="M11.643,16.111c-2.09,2.089-4.828,3.133-7.566,3.133
				c-1.369,0-2.738-0.26-4.026-0.783h0.652V-0.053h7.4v-1.319c1.288,0.522,2.495,1.306,3.54,2.351
				C15.82,5.157,15.82,11.932,11.643,16.111z"/>
			<path clip-path="url(#SVGID_6_)" fill="#F89533" d="M11.494,15.962c-2.048,2.049-4.733,3.073-7.418,3.073
				c-1.342,0-2.685-0.255-3.948-0.769h0.574V-0.053h7.322v-1.125c1.263,0.513,2.446,1.281,3.47,2.305
				C15.591,5.223,15.591,11.866,11.494,15.962z"/>
			<path clip-path="url(#SVGID_6_)" fill="#F89634" d="M11.347,15.814c-2.008,2.009-4.639,3.013-7.271,3.013
				c-1.316,0-2.631-0.251-3.869-0.754h0.495V-0.053h3.374v-1.685c2.632,0,5.263,1.004,7.271,3.012
				C15.362,5.29,15.362,11.799,11.347,15.814z"/>
			<path clip-path="url(#SVGID_6_)" fill="#F89734" d="M11.199,15.667c-1.967,1.968-4.545,2.95-7.123,2.95
				c-1.289,0-2.578-0.245-3.791-0.737h0.417V-0.053h3.374v-1.476c2.578,0,5.156,0.984,7.123,2.951
				C15.133,5.356,15.133,11.733,11.199,15.667z"/>
			<path clip-path="url(#SVGID_6_)" fill="#F89734" d="M11.051,15.519c-1.926,1.928-4.45,2.891-6.975,2.891
				c-1.262,0-2.524-0.241-3.712-0.723h0.338V-0.053h3.374V-1.32c2.525,0,5.049,0.963,6.975,2.889
				C14.903,5.421,14.903,11.667,11.051,15.519z"/>
			<path clip-path="url(#SVGID_6_)" fill="#F89834" d="M10.904,15.372C9.019,17.258,6.547,18.2,4.076,18.2
				c-1.235,0-2.471-0.236-3.633-0.707h0.259V-0.053h3.374v-1.059c2.471,0,4.942,0.943,6.828,2.828
				C14.674,5.487,14.674,11.602,10.904,15.372z"/>
			<path clip-path="url(#SVGID_6_)" fill="#F89935" d="M10.756,15.224c-1.845,1.846-4.262,2.768-6.68,2.768
				c-1.209,0-2.417-0.23-3.554-0.691h0.18V-0.053h3.374v-0.849c2.418,0,4.835,0.922,6.68,2.766
				C14.445,5.554,14.445,11.535,10.756,15.224z"/>
			<path clip-path="url(#SVGID_6_)" fill="#F89A35" d="M10.608,15.077c-1.803,1.804-4.168,2.706-6.532,2.706
				c-1.182,0-2.364-0.227-3.476-0.677h0.102V-0.017H0.6c1.112-0.451,2.294-0.676,3.476-0.676c2.364,0,4.729,0.902,6.532,2.706
				C14.215,5.621,14.215,11.469,10.608,15.077z"/>
			<path clip-path="url(#SVGID_6_)" fill="#F89A35" d="M10.461,14.929c-1.764,1.764-4.074,2.646-6.385,2.646
				c-1.155,0-2.311-0.22-3.397-0.662h0.023V0.176H0.679c1.086-0.441,2.243-0.661,3.397-0.661c2.311,0,4.621,0.882,6.385,2.645
				C13.986,5.686,13.986,11.403,10.461,14.929z"/>
			<path clip-path="url(#SVGID_6_)" fill="#F89B35" d="M10.313,14.782c-1.723,1.722-3.98,2.582-6.237,2.582
				c-1.129,0-2.257-0.215-3.319-0.646c-0.531-0.215-1.045-0.483-1.534-0.808h1.479V1.177h-1.479
				c0.489-0.323,1.003-0.592,1.534-0.807c1.062-0.431,2.19-0.647,3.319-0.647c2.257,0,4.515,0.862,6.237,2.584
				C13.757,5.752,13.757,11.337,10.313,14.782z"/>
			<path clip-path="url(#SVGID_6_)" fill="#F99C35" d="M10.166,14.634c-1.682,1.682-3.886,2.522-6.09,2.522
				c-1.102,0-2.204-0.21-3.241-0.63c-0.518-0.211-1.02-0.474-1.498-0.789h1.364V1.352h-1.364c0.478-0.316,0.979-0.579,1.498-0.789
				c1.037-0.42,2.139-0.631,3.241-0.631c2.204,0,4.408,0.841,6.09,2.523C13.529,5.818,13.529,11.271,10.166,14.634z"/>
			<path clip-path="url(#SVGID_6_)" fill="#F99C36" d="M10.018,14.487c-1.641,1.64-3.791,2.46-5.942,2.46
				c-1.075,0-2.15-0.205-3.162-0.615c-0.506-0.205-0.996-0.462-1.462-0.769h1.25V1.526h-1.25c0.466-0.307,0.956-0.564,1.462-0.769
				c1.011-0.411,2.086-0.615,3.162-0.615c2.151,0,4.301,0.82,5.942,2.461C13.299,5.884,13.299,11.205,10.018,14.487z"/>
			<path clip-path="url(#SVGID_6_)" fill="#F99D36" d="M9.87,14.338c-1.6,1.601-3.697,2.4-5.794,2.4c-1.048,0-2.097-0.2-3.083-0.601
				c-0.493-0.199-0.97-0.449-1.425-0.75h1.134V1.7h-1.134C0.022,1.4,0.5,1.15,0.993,0.95c0.987-0.4,2.035-0.6,3.083-0.6
				c2.097,0,4.194,0.8,5.794,2.4C13.07,5.95,13.07,11.139,9.87,14.338z"/>
			<path clip-path="url(#SVGID_6_)" fill="#F99E36" d="M9.723,14.191C8.164,15.75,6.12,16.53,4.076,16.53
				c-1.022,0-2.043-0.195-3.004-0.585c-0.481-0.195-0.946-0.438-1.389-0.731h1.02V1.875h-1.02c0.443-0.292,0.908-0.536,1.389-0.73
				C2.033,0.754,3.054,0.56,4.076,0.56c2.044,0,4.087,0.779,5.646,2.338C12.841,6.017,12.841,11.072,9.723,14.191z"/>
			<path clip-path="url(#SVGID_6_)" fill="#F99F36" d="M9.575,14.043c-1.518,1.52-3.509,2.278-5.499,2.278
				c-0.995,0-1.99-0.19-2.926-0.569c-0.468-0.189-0.921-0.427-1.352-0.712h0.904V2.049h-0.904C0.229,1.764,0.682,1.527,1.15,1.337
				c0.936-0.379,1.932-0.569,2.926-0.569c1.99,0,3.981,0.759,5.499,2.277C12.612,6.083,12.612,11.006,9.575,14.043z"/>
			<path clip-path="url(#SVGID_6_)" fill="#F99F36" d="M9.427,13.896c-1.478,1.478-3.415,2.217-5.351,2.217
				c-0.968,0-1.937-0.186-2.848-0.555c-0.456-0.185-0.896-0.416-1.316-0.692h0.79V2.223h-0.79c0.42-0.276,0.86-0.507,1.316-0.692
				c0.911-0.37,1.88-0.554,2.848-0.554c1.937,0,3.873,0.739,5.351,2.216C12.382,6.148,12.382,10.94,9.427,13.896z"/>
			<path clip-path="url(#SVGID_6_)" fill="#F9A037" d="M9.28,13.748c-1.437,1.437-3.32,2.156-5.204,2.156
				c-0.942,0-1.883-0.18-2.769-0.539c-0.443-0.18-0.872-0.403-1.28-0.674h0.675V2.398H0.027c0.408-0.269,0.837-0.494,1.28-0.673
				c0.886-0.359,1.827-0.539,2.769-0.539c1.883,0,3.767,0.718,5.204,2.155C12.153,6.215,12.153,10.874,9.28,13.748z"/>
			<path clip-path="url(#SVGID_6_)" fill="#F9A137" d="M9.132,13.6c-2.792,2.792-7.319,2.792-10.111,0h1.681V3.489h-1.681
				c2.792-2.792,7.319-2.792,10.111,0C11.924,6.281,11.924,10.808,9.132,13.6z"/>
			<path clip-path="url(#SVGID_6_)" fill="#F9A137" d="M8.984,13.453c-2.711,2.71-7.105,2.71-9.816,0h1.534V3.636h-1.534
				c2.71-2.711,7.105-2.711,9.816,0C11.695,6.347,11.695,10.742,8.984,13.453z"/>
			<path clip-path="url(#SVGID_6_)" fill="#F9A237" d="M8.837,13.305c-2.629,2.628-6.892,2.628-9.521,0h1.386V3.784h-1.386
				c2.629-2.629,6.892-2.629,9.521,0C11.466,6.413,11.466,10.676,8.837,13.305z"/>
			<path clip-path="url(#SVGID_6_)" fill="#FAA337" d="M8.689,13.157c-2.547,2.548-6.678,2.548-9.226,0h1.239V3.932h-1.239
				c2.547-2.548,6.678-2.548,9.226,0C11.236,6.479,11.236,10.609,8.689,13.157z"/>
			<path clip-path="url(#SVGID_6_)" fill="#FAA438" d="M8.542,13.009c-2.466,2.466-6.464,2.466-8.931,0h1.091V4.08h-1.091
				c2.466-2.466,6.464-2.466,8.931,0C11.007,6.546,11.007,10.544,8.542,13.009z"/>
			<path clip-path="url(#SVGID_6_)" fill="#FAA438" d="M8.394,12.862c-2.385,2.384-6.25,2.384-8.635,0h0.943V4.227h-0.943
				c2.385-2.384,6.25-2.384,8.635,0C10.778,6.611,10.778,10.478,8.394,12.862z"/>
			<path clip-path="url(#SVGID_6_)" fill="#FAA538" d="M8.246,12.714c-2.303,2.302-6.036,2.302-8.34,0h0.796v-8.34h-0.796
				c2.304-2.303,6.037-2.303,8.34,0C10.549,6.678,10.549,10.412,8.246,12.714z"/>
			<path clip-path="url(#SVGID_6_)" fill="#FAA638" d="M8.099,12.567c-2.222,2.221-5.823,2.221-8.044,0h0.648V4.522H0.054
				c2.221-2.222,5.823-2.222,8.044,0C10.32,6.744,10.32,10.345,8.099,12.567z"/>
			<path clip-path="url(#SVGID_6_)" fill="#FAA739" d="M7.951,12.419c-2.14,2.14-5.61,2.14-7.75,0h0.5V4.67h-0.5
				c2.14-2.14,5.609-2.14,7.75,0C10.091,6.81,10.091,10.279,7.951,12.419z"/>
			<path clip-path="url(#SVGID_6_)" fill="#FAA739" d="M7.803,12.271c-2.058,2.059-5.396,2.059-7.454,0h0.353V4.818H0.349
				c2.059-2.059,5.396-2.059,7.454,0C9.861,6.876,9.861,10.213,7.803,12.271z"/>
			<path clip-path="url(#SVGID_6_)" fill="#FAA839" d="M7.655,12.124c-1.977,1.977-5.181,1.977-7.158,0h0.205V4.965H0.498
				c1.977-1.977,5.181-1.977,7.158,0C9.632,6.942,9.632,10.147,7.655,12.124z"/>
			<path clip-path="url(#SVGID_6_)" fill="#FAA939" d="M7.508,11.976c-1.896,1.896-4.968,1.896-6.863,0h0.057V5.113H0.645
				c1.895-1.895,4.967-1.895,6.863,0C9.403,7.008,9.403,10.081,7.508,11.976z"/>
			<circle clip-path="url(#SVGID_6_)" fill="#FAA93A" cx="4.076" cy="8.544" r="4.644"/>
			<circle clip-path="url(#SVGID_6_)" fill="#FBAA3A" cx="4.076" cy="8.545" r="4.435"/>
			<circle clip-path="url(#SVGID_6_)" fill="#FBAB3A" cx="4.076" cy="8.545" r="4.227"/>
			<circle clip-path="url(#SVGID_6_)" fill="#FBAC3A" cx="4.076" cy="8.544" r="4.018"/>
			<circle clip-path="url(#SVGID_6_)" fill="#FBAC3A" cx="4.077" cy="8.544" r="3.809"/>
			<circle clip-path="url(#SVGID_6_)" fill="#FBAD3B" cx="4.076" cy="8.544" r="3.6"/>
			<circle clip-path="url(#SVGID_6_)" fill="#FBAE3B" cx="4.076" cy="8.545" r="3.392"/>
			<circle clip-path="url(#SVGID_6_)" fill="#FBAF3B" cx="4.076" cy="8.544" r="3.182"/>
			<circle clip-path="url(#SVGID_6_)" fill="#FBAF3B" cx="4.076" cy="8.544" r="2.974"/>
			<circle clip-path="url(#SVGID_6_)" fill="#FBB03C" cx="4.076" cy="8.544" r="2.765"/>
		</g>
		<path fill="#010101" d="M12.205,25.356L12.205,25.356c-0.495,0-1.004-0.071-1.515-0.208c-1.501-0.405-2.66-1.297-3.443-2.654
			l-5.442-9.426c-0.783-1.357-0.978-2.806-0.577-4.309c0.401-1.502,1.29-2.66,2.644-3.442l6.149-3.55
			c1.541-0.89,2.773-1.406,3.665-1.534c1.207-0.166,2.119,0.275,2.712,1.302c0.618,1.074,0.645,2.035,0.073,2.854
			c-0.388,0.575-1.208,1.219-2.502,1.967c-1.378,0.795-2.251,1.352-2.594,1.653c-0.63,0.542-0.81,1.024-0.549,1.475
			c0.283,0.491,0.685,0.643,1.237,0.476c0.222-0.067,0.866-0.408,1.914-1.014c0.767-0.442,1.581-0.578,2.411-0.405
			c0.838,0.175,1.472,0.625,1.88,1.334c0.401,0.694,0.47,1.459,0.203,2.272c-0.265,0.809-0.789,1.444-1.558,1.887
			c-0.886,0.511-1.483,0.928-1.773,1.24c-0.406,0.427-0.489,0.834-0.253,1.243c0.233,0.405,0.742,0.471,1.525,0.214
			c0.562-0.179,1.488-0.641,2.755-1.371c1.245-0.721,2.251-1.102,2.989-1.138c0.058-0.004,0.119-0.006,0.178-0.006
			c0.92,0,1.667,0.488,2.223,1.45c0.622,1.078,0.551,2.096-0.217,3.026c-0.519,0.622-1.595,1.407-3.2,2.333l-6.148,3.55
			C14.099,25.094,13.162,25.356,12.205,25.356z M14.164,0.456c-0.142,0-0.291,0.01-0.444,0.031
			c-0.857,0.123-2.059,0.628-3.572,1.501l-6.149,3.55C2.707,6.285,1.857,7.391,1.475,8.826c-0.383,1.434-0.197,2.819,0.551,4.115
			l5.442,9.425c0.748,1.296,1.854,2.148,3.289,2.536c1.434,0.386,2.813,0.204,4.108-0.543l6.148-3.552
			c1.578-0.91,2.633-1.676,3.132-2.274c0.699-0.851,0.764-1.745,0.19-2.735c-0.547-0.949-1.259-1.379-2.165-1.316
			c-0.699,0.032-1.665,0.404-2.875,1.103c-1.283,0.741-2.227,1.209-2.805,1.393c-0.913,0.301-1.528,0.186-1.825-0.328
			c-0.296-0.514-0.199-1.035,0.29-1.547c0.31-0.334,0.909-0.754,1.831-1.287c0.712-0.411,1.198-0.998,1.443-1.745
			c0.242-0.741,0.182-1.437-0.183-2.065C17.676,9.36,17.1,8.953,16.336,8.793c-0.77-0.161-1.519-0.036-2.231,0.376
			c-1.08,0.624-1.723,0.962-1.967,1.037c-0.67,0.201-1.192-0.002-1.533-0.593c-0.327-0.567-0.124-1.17,0.603-1.795
			c0.359-0.316,1.221-0.866,2.633-1.683c1.244-0.718,2.059-1.354,2.42-1.89c0.518-0.743,0.489-1.587-0.085-2.582
			C15.706,0.851,15.048,0.456,14.164,0.456z"/>
	</g>
	<g opacity="0.2">
		<path fill="#FFFFFF" d="M5.318,6.673l5.468-3.191c4.765-2.881,5.48-0.965,5.284-1.308c-0.531-0.92-1.336-1.306-2.415-1.159
			c-0.82,0.118-1.947,0.591-3.382,1.419L4.527,5.751C3.284,6.469,2.48,7.518,2.112,8.896c-0.368,1.379-0.191,2.691,0.527,3.937
			C2.639,12.833,1.426,8.344,5.318,6.673z"/>
	</g>
	<g opacity="0.6">
		<path opacity="0.4" fill="#F15C27" d="M14.772,3.753c-0.741,0.428-1.205,0.724-1.392,0.888c-0.36,0.309-0.462,0.599-0.306,0.869
			c0.129,0.223,0.305,0.329,0.53,0.321c0.246-0.172,0.633-0.411,1.168-0.719c0.674-0.39,1.111-0.731,1.311-1.027
			c0.274-0.393,0.272-0.847,0.002-1.362c-0.001,0.001-0.001,0.002-0.002,0.002C15.884,3.021,15.446,3.363,14.772,3.753z"/>
		<path fill="#F15C27" d="M23.265,16.313c0.266,2.295-8.62,6.084-8.62,6.084c-1.244,0.718-2.701,0.543-4.082,0.172
			c-1.381-0.372-5.67-6.211-7.543-9.019l4.695,8.631c0.721,1.248,1.771,2.059,3.153,2.431c1.38,0.372,2.694,0.197,3.938-0.521
			l5.76-3.325c1.497-0.863,2.485-1.584,2.965-2.157c0.679-0.824,0.747-1.717,0.204-2.673C23.674,16.029,23.252,16.192,23.265,16.313
			z"/>
		<path opacity="0.6" fill="#F15C27" d="M17.034,11.559c-0.582,0.336-0.97,0.608-1.164,0.815c-0.288,0.302-0.346,0.603-0.175,0.9
			c0.144,0.249,0.422,0.328,0.831,0.242c0.148-0.098,0.315-0.2,0.508-0.31c0.479-0.277,0.802-0.667,0.968-1.171
			c0.162-0.495,0.124-0.954-0.113-1.376C17.707,11.033,17.423,11.334,17.034,11.559z"/>
	</g>
	<path opacity="0.1" fill="#F6EB16" d="M15.516,8.665c-0.504,0.028-0.997,0.179-1.476,0.456c-1.06,0.612-1.708,0.955-1.94,1.025
		c-0.611,0.185-1.073,0.006-1.385-0.535c-0.293-0.508-0.102-1.052,0.576-1.634c0.35-0.308,1.221-0.864,2.613-1.668
		c0.605-0.35,1.106-0.679,1.508-0.989c-0.251-1.752-0.806-3.405-1.611-4.906c-0.033,0.004-0.064,0.003-0.098,0.008
		c-0.877,0.125-2.083,0.631-3.619,1.518l-6.149,3.55c-1.329,0.768-2.19,1.889-2.583,3.365c-0.394,1.476-0.205,2.879,0.564,4.212
		l4.672,8.094C11.524,19.011,15.069,14.276,15.516,8.665z"/>
	<path opacity="0.05" fill="#F6EB16" d="M17.403,16.518c-0.383,0.186-0.703,0.319-0.951,0.398c-0.853,0.28-1.41,0.191-1.676-0.27
		s-0.177-0.927,0.271-1.396c0.3-0.322,0.901-0.743,1.803-1.264c0.47-0.271,0.841-0.612,1.115-1.023
		c0.021-0.35,0.034-0.702,0.034-1.057c0-0.796-0.057-1.577-0.157-2.346c-0.374-0.426-0.867-0.705-1.479-0.833
		c-0.805-0.168-1.578-0.038-2.322,0.391c-1.06,0.612-1.708,0.955-1.94,1.025c-0.611,0.185-1.073,0.006-1.385-0.535
		c-0.293-0.508-0.102-1.052,0.576-1.634c0.35-0.308,1.221-0.864,2.613-1.668c1.258-0.727,2.077-1.367,2.455-1.92
		c-0.659-1.437-1.497-2.775-2.491-3.979c-0.055,0.005-0.108,0.005-0.165,0.013c-0.877,0.125-2.083,0.631-3.619,1.518l-6.149,3.55
		c-1.329,0.768-2.19,1.889-2.583,3.365c-0.394,1.476-0.205,2.879,0.564,4.212l5.442,9.425c0.769,1.333,1.891,2.198,3.366,2.595
		c0.459,0.123,0.911,0.185,1.356,0.195C14.622,22.97,16.502,19.942,17.403,16.518z"/>
	<circle opacity="0.2" fill="#FFFFFF" cx="5.338" cy="9.507" r="3.441"/>
	<circle opacity="0.3" fill="#FFFFFF" cx="14.262" cy="2.477" r="1.473"/>
	<circle opacity="0.2" fill="#FFFFFF" cx="8.334" cy="7.049" r="1.009"/>
</g>
</svg>
